<svg width="594.327" height="423.251" xmlns="http://www.w3.org/2000/svg" data-name="Layer 1">

 <g>
  <title>Layer 1</title>
  <g stroke="null" id="svg_1">
   <path stroke="null" id="svg_2" opacity="0.2" fill="#F8B042" d="m172.69075,51.14567l-0.41785,-0.10781l-132.62168,284.04395l467.51898,36.92078l0.52693,0.04151l17.13039,-230.57966l0.03372,-0.45334l-352.17049,-89.86542zm134.30364,182.66599l-265.50314,99.83035l131.17422,-280.94279l134.32893,181.11244zm0.7788,0.85548l197.48848,136.10049l-462.35194,-36.51002l264.86346,-99.59047zm0.24397,-1.25923l-134.12975,-180.84776l348.74494,88.99054l-214.61519,91.85722zm198.7373,137.09019l-197.80517,-136.32042l214.76115,-91.91921l-16.95598,228.23963z"/>
   <g stroke="null" id="svg_3">
    <path stroke="null" id="svg_4" fill="#fff" d="m584.58049,146.26631a66.26157,67.78638 0 0 1 -91.80699,59.84614a65.38003,66.88454 0 0 1 -13.08043,-7.51762a66.5282,68.05914 0 0 1 -18.95145,-21.64942l0,-0.00755a66.21995,67.74379 0 1 1 123.83834,-30.67208l0.00053,0.00054z"/>
    <path stroke="null" id="svg_5" opacity="0.09" fill="#F8B042" d="m584.58049,146.26631a66.26157,67.78638 0 0 1 -91.80699,59.84614a65.38003,66.88454 0 0 1 -13.08043,-7.51762a66.5282,68.05914 0 0 1 -18.95145,-21.64942l0,-0.00755a66.21995,67.74379 0 1 1 123.83834,-30.67208l0.00053,0.00054z"/>
    <g stroke="null" id="svg_6">
     <path stroke="null" id="svg_7" fill="#0c0c0c" d="m534.06718,92.04896s15.83152,0.19837 10.37308,22.51784l-1.48646,0.07439l-3.01824,0.1504"/>
     <g stroke="null" id="svg_8">
      <path stroke="null" fill="#E98862" d="m516.38984,137.98377c0.07377,-0.00701 0.36569,13.91456 16.1835,13.32969c10.95059,-0.40321 15.29352,-12.10011 15.54434,-12.09041c-1.16767,-0.30241 -3.13627,-0.75467 -3.64791,-1.05978c-1.68353,-1.01288 -3.77385,-2.08074 -4.19855,-5.51882c-0.24449,-1.98156 0.67921,-12.03165 0.58805,-14.02992l-16.90592,3.16154c0.07482,4.21647 1.34419,14.03369 -4.46623,15.53172c-0.96744,0.24796 -2.00706,0.46951 -3.09728,0.67597z" id="sk"/>
      <path stroke="null" fill="#0c0c0c" d="m523.27414,133.46651a12.13302,12.41222 0 0 0 0.60544,-2.64136a27.75587,28.39458 0 0 0 0.12488,-6.19425a18.38975,18.81293 0 0 0 9.42092,-3.78415c0.26662,1.18592 1.78365,6.39424 1.26462,7.49283c-0.97429,2.07751 -5.31406,5.3695 -11.41587,5.12693z" id="sh"/>
      <path stroke="null" id="svg_9" fill="#E98862" d="m527.11175,131.00682c6.62716,-0.48515 14.62169,-4.61267 14.89938,-13.79974l0.25082,-8.28793c0.27769,-9.18545 -4.21541,-16.78124 -12.66679,-17.04861l0,0c-8.45401,-0.26953 -14.99845,6.97857 -15.27614,16.16403l-0.11065,3.66933a27.10933,27.73317 0 0 0 0.20129,3.77337c0.37517,3.30978 0.95795,8.34237 3.08832,11.77883c2.01075,3.24402 5.37992,4.0596 9.61378,3.75073z"/>
      <path stroke="null" id="svg_10" fill="#E98862" d="m541.40148,119.99074c2.5693,0.08086 4.73707,-2.66508 4.81664,-5.29296s-1.95964,-4.1437 -4.52841,-4.22509l-1.37739,1.71904l-1.11972,7.72893l2.20888,0.07008z"/>
      <path stroke="null" id="svg_11" fill="#0c0c0c" d="m514.75373,118.25122a4.31606,4.41538 0 0 0 3.83919,1.53414c1.52809,-0.19675 2.54137,0.44472 3.81706,0.31588c1.07072,-0.10781 1.25619,-0.61398 3.08358,-0.72449c7.05397,-0.42747 12.34748,-0.88243 12.69103,-9.93797l4.48889,-4.07901s2.00601,25.09397 -11.26148,28.42962c-8.15261,2.0484 -15.79885,1.29966 -16.78209,-6.53331c-0.79882,-6.36459 0.12383,-9.00487 0.12383,-9.00487z"/>
      <circle stroke="null" id="svg_12" fill="#0c0c0c" r="0.92979" cy="111.94485" cx="518.09603"/>
      <circle stroke="null" id="svg_13" fill="#0c0c0c" r="0.92979" cy="111.74648" cx="527.40261"/>
     </g>
     <path stroke="null" id="svg_14" fill="#0c0c0c" d="m538.92018,115.71821s-0.636,-13.01596 -4.47519,-13.89084c-2.55718,-0.58272 -8.84657,3.0257 -14.59166,1.79343c-2.51291,-0.53905 -4.91833,0.05391 -5.18391,1.26893c-0.10539,0.48083 -2.09401,-3.78361 1.94963,-8.97253c3.219,-4.1313 13.68692,-5.29349 18.34338,-3.83266c12.89495,4.04613 7.24735,18.97087 7.24735,18.97087l-0.65813,4.4709l-2.63147,0.1919z"/>
     <circle stroke="null" id="svg_15" fill="#0c0c0c" r="6.13366" cy="98.19254" cx="544.78013"/>
     <g stroke="null" id="svg_16">
      <path stroke="null" id="svg_17" fill="#0c0c0c" d="m522.53591,119.68294l-0.01633,0c-0.8278,-0.02426 -2.21309,-0.15902 -2.19728,-0.79241c0.01475,-0.52504 1.57657,-6.15167 1.75467,-6.79206a0.21077,0.21562 0 0 1 0.40573,0.11805c-0.69344,2.49204 -1.72832,6.32901 -1.73886,6.68425c0.07746,0.15201 0.93003,0.32343 1.78734,0.34877a0.21077,0.21562 0 0 1 0.00474,0.43124l0,0.00216z"/>
     </g>
     <path stroke="null" id="svg_18" fill="#0c0c0c" d="m520.01562,108.32403a4.96523,5.07949 0 0 0 -2.62778,-0.05391a4.3698,4.47036 0 0 0 -1.20877,0.50994a5.13912,5.25738 0 0 0 -1.0196,0.81451a0.26768,0.27384 0 0 0 0.35726,0.40806l0.01633,-0.01402a4.56319,4.66819 0 0 1 0.93898,-0.66896a3.74803,3.83428 0 0 1 1.06387,-0.38057a4.23913,4.33668 0 0 1 2.19676,0.15686l0.02687,0.01024a0.40257,0.41184 0 1 0 0.27769,-0.773l-0.0216,-0.00916z"/>
     <path stroke="null" id="svg_19" fill="#0c0c0c" d="m526.15327,109.09703a4.22806,4.32536 0 0 1 2.17147,-0.37464a3.72643,3.81218 0 0 1 1.09548,0.2733a4.56319,4.66819 0 0 1 0.99747,0.57193l0.01686,0.01186a0.26768,0.27384 0 0 0 0.31616,-0.44094a5.14966,5.26816 0 0 0 -1.09232,-0.70939a4.38245,4.4833 0 0 0 -1.25145,-0.38758a4.97261,5.08704 0 0 0 -2.6104,0.31642a0.40257,0.41184 0 0 0 0.30878,0.7606l0.0195,-0.00862l0.02845,-0.01294z"/>
     <path stroke="null" id="svg_20" fill="#F8B042" d="m568.35642,172.74564c-0.5891,4.55122 -1.16398,10.80261 -1.67774,17.26639a66.49816,68.02841 0 0 1 -6.42324,6.12687q-2.16514,1.79936 -4.46939,3.42083a66.34694,67.8737 0 0 1 -57.43239,8.64963c-0.13068,-6.00397 -0.30878,-14.10269 -0.48583,-21.52221c-0.20287,-8.55853 -0.40784,-16.2217 -0.51797,-18.73962c-0.45421,-9.99295 -3.04353,-16.66049 -1.086,-22.11247a10.94638,11.19827 0 0 1 2.75003,-4.24935c4.56055,-4.56631 15.88895,-4.46228 20.43264,-4.28169c0.07904,0.00323 -1.32469,10.73092 13.62475,10.60154c10.98801,-0.09218 11.81212,-9.5919 11.81212,-9.5919s5.4147,0.57625 9.01045,1.21502c5.88156,1.05385 9.70547,3.26073 12.68102,6.55649c2.77638,3.07314 4.41407,6.33548 1.78154,26.66045z"/>
     <g stroke="null" id="svg_21">
      <path stroke="null" id="svg_22" fill="#E98862" d="m480.46871,138.36165l0.4521,-11.44678a1.77205,1.81283 0 0 0 -1.85742,-1.88668a1.83423,1.87644 0 0 0 -1.68617,1.83278l-0.09695,2.45484l-3.15998,-7.861c-0.33618,-0.88027 -1.2994,-1.7406 -2.23997,-1.28941a1.771,1.81176 0 0 0 -1.10655,1.95137a0.14649,0.14986 0 0 0 -0.02635,0.00593a0.11961,0.12236 0 0 0 -0.01686,0.01186l-0.5185,-1.35733a1.77364,1.81445 0 0 0 -2.6241,-0.85655a1.81421,1.85596 0 0 0 -0.65286,2.23868l0.22078,0.57733a0.1702,0.17411 0 0 0 -0.03214,0.04905a1.77153,1.81229 0 0 0 -2.21309,-0.61614a1.82896,1.87105 0 0 0 -0.86521,2.38099l0.548,1.43496a0.16387,0.16765 0 0 0 -0.14859,-0.01725a0.16229,0.16603 0 0 0 -0.06955,0.06037a1.77364,1.81445 0 0 0 -2.14881,-0.10512a1.81368,1.85542 0 0 0 -0.61545,2.21389l4.62484,12.10658a8.92351,9.12885 0 0 0 8.2053,5.80559l0,0a5.88946,6.02499 0 0 0 5.95427,-5.7808l0.07324,-1.90717z"/>
      <g stroke="null" id="svg_23" opacity="0.2">
       <path stroke="null" id="svg_24" fill="#0c0c0c" d="m473.86263,129.91416a0.16387,0.16765 0 0 1 -0.21077,-0.09272l-2.99453,-7.48043a0.16387,0.16765 0 1 1 0.30298,-0.12668l2.99453,7.48043a0.16335,0.16711 0 0 1 -0.08958,0.21832l-0.00263,0.00108z"/>
      </g>
      <g stroke="null" id="svg_25" opacity="0.2">
       <path stroke="null" id="svg_26" fill="#0c0c0c" d="m470.6742,131.35666a0.16335,0.16711 0 0 1 -0.21077,-0.09326l-3.34177,-8.3483a0.16335,0.16711 0 0 1 0.08958,-0.21562a0.16914,0.17304 0 0 1 0.21077,0.0911l3.34177,8.3483a0.16387,0.16765 0 0 1 -0.08958,0.21832l0,-0.00054z"/>
      </g>
      <g stroke="null" id="svg_27" opacity="0.2">
       <path stroke="null" id="svg_28" fill="#0c0c0c" d="m467.22967,132.93878a0.16335,0.16711 0 0 1 -0.21077,-0.09326l-2.66572,-6.65891a0.16335,0.16711 0 1 1 0.30246,-0.12668l2.6673,6.6573a0.16387,0.16765 0 0 1 -0.08958,0.21832l-0.00369,0.00323z"/>
      </g>
     </g>
     <path stroke="null" id="svg_29" fill="#F8B042" d="m517.50798,156.30778l-27.23158,42.83095a11.88062,12.15401 0 0 1 -3.87765,3.8111a64.48056,65.96438 0 0 1 -6.7062,-4.355a66.16778,67.69043 0 0 1 -12.29847,-11.78476l-5.71979,-45.36881l22.89128,-3.75234l2.60987,21.83809l10.45844,-16.44811l19.8741,13.22888z"/>
     <path stroke="null" id="svg_30" fill="#fff" d="m520.70063,122.01974a11.25779,11.51685 0 0 0 7.05344,-1.95191a0.45632,0.46682 0 0 1 0.70819,0.43502c-0.16704,1.50935 -0.89578,4.28547 -3.99147,4.63908c-1.99863,0.22802 -3.44716,-1.34224 -4.17695,-2.38638a0.45579,0.46628 0 0 1 0.40679,-0.73581z"/>
     <path stroke="null" id="svg_31" fill="#F8B042" d="m575.74077,177.55938a66.50607,68.0365 0 0 1 -15.48533,18.57952q-2.16514,1.79936 -4.46939,3.42083l-10.63602,-41.39437l23.95304,-6.44545l6.6377,25.83948z"/>
     <path stroke="null" id="svg_32" fill="#0c0c0c" d="m556.01895,199.39801c-0.07588,0.05067 -0.15808,0.10781 -0.2329,0.16172s-0.15175,0.10781 -0.22763,0.15794l-8.10624,-31.53456l0.51165,-0.13638l8.05513,31.35129z"/>
     <path stroke="null" id="svg_33" fill="#0c0c0c" d="m497.93212,188.63691a0.26346,0.26953 0 0 1 -0.2524,-0.25713l-0.52271,-11.75134a0.26346,0.26953 0 0 1 0.52693,-0.02426l0.52218,11.75134a0.26346,0.26953 0 0 1 -0.25082,0.28139l-0.02318,0z"/>
    </g>
   </g>
   <g stroke="null" id="svg_34">
    <circle stroke="null" id="svg_35" fill="#fff" r="60.25254" cy="228.31817" cx="300.92999"/>
    <path stroke="null" id="svg_36" opacity="0.09" fill="#F8B042" d="m368.43775,228.31655a67.50618,69.05962 0 1 1 -67.50618,-69.05962a67.25799,68.80573 0 0 1 67.50618,69.05962z"/>
    <g stroke="null" id="svg_37">
     <g stroke="null" id="svg_38">
      <path stroke="null" id="svg_39" fill="#0a0a0a" d="m271.04797,187.58468s-0.67868,10.42527 -2.97187,14.2078c-6.60029,10.88886 -8.5125,23.13882 -1.90273,29.54007s48.76971,6.48911 51.96342,-8.23133c2.68733,-12.39281 -3.08147,-13.72535 -4.4852,-23.94848c-0.63547,-4.62561 -2.38329,-14.32532 -2.38329,-14.32532"/>
      <path stroke="null" fill="#E98862" d="m307.22413,220.94124c-0.07272,-0.0097 -0.87997,13.69894 -16.44749,12.50602c-10.77671,-0.82583 -14.61906,-12.52327 -14.86619,-12.52327c1.16187,-0.25228 3.11835,-0.61991 3.6358,-0.9013c1.6967,-0.9331 3.79651,-1.90339 4.34346,-5.27517c0.31616,-1.94059 -0.21973,-11.88395 -0.05269,-13.84987l16.54234,3.77714c-0.23079,4.1507 -1.84899,13.77818 3.82127,15.48158c0.94056,0.27977 1.95701,0.53905 3.02351,0.78486z" data-name="sk" id="sk-2"/>
      <path stroke="null" opacity="0.5" fill="#0c0c0c" d="m300.60804,216.22076a11.99918,12.2753 0 0 1 -0.49742,-2.6268a27.38175,28.01186 0 0 1 0.10802,-6.10908a18.13577,18.55311 0 0 1 -9.14271,-4.0968c-0.3072,1.16058 -1.99653,6.23145 -1.52809,7.33489c0.88576,2.08344 5.03795,5.4978 11.06019,5.4978z" data-name="sh" id="sh-2"/>
      <path stroke="null" id="svg_40" fill="#E98862" d="m298.46924,211.94985c-6.5223,0.64686 -14.96103,-2.0236 -16.70885,-10.9088l-1.57762,-8.01733c-1.74782,-8.8852 1.39688,-17.02759 9.57426,-18.71105l0,0c8.1779,-1.684 15.70769,4.25851 17.4555,13.14587l0.6987,3.54912c0.67078,3.40951 2.19465,19.79023 -9.442,20.94219z"/>
      <ellipse stroke="null" id="svg_41" transform="matrix(0.523216 -0.0638633 0.0624268 0.535256 -4.88287 -1.17289)" opacity="0.1" fill="#0c0c0c" ry="2.725" rx="3.714" cy="435.68517" cx="519.55104"/>
      <path stroke="null" id="svg_42" opacity="0.1" fill="#0c0c0c" d="m305.66443,197.08655c0.09643,0.80373 1.04226,1.34763 2.11561,1.22041a2.71157,2.77396 0 0 0 0.54537,-0.12614c0.04953,-0.95897 0.05269,-1.88183 0.02529,-2.73569a2.46075,2.51737 0 0 0 -0.91211,-0.05391c-1.07335,0.12883 -1.8669,0.88782 -1.77416,1.69532z"/>
      <path stroke="null" id="svg_43" opacity="0.5" fill="#0c0c0c" d="m300.92208,199.57213l0.01581,0a9.22543,9.43773 0 0 0 0.98008,-0.26953c0.48003,-0.16172 1.10655,-0.43394 1.02118,-0.87812c-0.09959,-0.50671 -2.52925,-5.6897 -2.80694,-6.27942a0.21077,0.21562 0 0 0 -0.37939,0.18651c1.03647,2.21011 2.7063,5.83686 2.77322,6.17754c-0.05269,0.15902 -0.84888,0.46951 -1.67141,0.63932a0.21077,0.21562 0 0 0 0.06745,0.42477l0,-0.00108z"/>
      <path stroke="null" id="svg_44" fill="#0a0a0a" d="m273.65784,195.90172l7.33166,-1.46514c5.538,-2.37183 7.1093,-12.24296 7.1093,-12.24296s6.83477,6.65891 23.1695,2.63219c0,0 -3.54833,-23.32803 -27.66787,-16.24704c-7.77744,2.28289 -13.28646,10.39293 -12.46709,21.13409c0.57382,7.52894 2.52451,6.18886 2.52451,6.18886z"/>
      <path stroke="null" id="svg_45" fill="#E98862" d="m282.80054,203.64359c-2.48499,0.51156 -5.03479,-1.79343 -5.53273,-4.33614s1.23828,-4.35932 3.72379,-4.87088l1.61556,1.43981l2.33218,7.32734l-2.1388,0.43987z"/>
      <path stroke="null" id="svg_46" fill="#0c0c0c" d="m301.89479,188.01161a4.30078,4.39975 0 0 1 2.10771,-0.79241a3.816,3.90382 0 0 1 1.13974,0.06415a4.61799,4.72426 0 0 1 1.09179,0.37734l0.01107,0.00485a0.16124,0.16495 0 0 0 0.137,-0.2981a4.93625,5.04984 0 0 0 -1.16293,-0.44741a4.17326,4.26929 0 0 0 -1.24513,-0.1132a4.74761,4.85686 0 0 0 -2.37117,0.80858a0.24186,0.24743 0 1 0 0.27242,0.4086l0.00527,-0.00377l0.01423,-0.00862z"/>
      <path stroke="null" id="svg_47" fill="#0c0c0c" d="m295.19755,188.95818a4.74234,4.85147 0 0 0 -2.495,0.18058a4.16272,4.25851 0 0 0 -1.10655,0.59296a4.97208,5.0865 0 0 0 -0.90684,0.86895a0.16124,0.16495 0 0 0 0.23817,0.22209l0.00843,-0.00916a4.57899,4.68437 0 0 1 0.86679,-0.77677a3.79967,3.88711 0 0 1 1.02909,-0.50617a4.315,4.4143 0 0 1 2.24365,-0.09326l0.01844,0.00431a0.24186,0.24743 0 1 0 0.11382,-0.48083l-0.01001,-0.0027z"/>
      <path stroke="null" id="svg_48" fill="#0c0c0c" d="m280.99424,194.31367c4.92835,-1.87644 6.5634,-5.35818 7.06767,-7.94941a12.35749,12.64186 0 0 0 -0.08958,-5.2218l-0.15281,0.04312a12.18149,12.46181 0 0 1 0.08589,5.15334c-0.49689,2.5481 -2.10771,5.97432 -6.9665,7.82327l0.05533,0.15147z"/>
     </g>
     <g stroke="null" id="svg_49">
      <path stroke="null" id="svg_50" fill="#E98862" d="m343.30439,218.21094l2.95079,-10.242a1.65192,1.68993 0 0 1 2.19043,-1.09428a1.70882,1.74815 0 0 1 0.95321,2.13249l-0.63231,2.1961l5.08642,-5.97162c0.55433,-0.67435 1.6556,-1.13902 2.35378,-0.4528a1.65033,1.68831 0 0 1 0.40626,2.0608a0.10855,0.11104 0 0 1 0.02108,0.01348a0.08325,0.08517 0 0 1 0.01159,0.01563l0.85468,-1.03983a1.65297,1.69101 0 0 1 2.56613,0.04744a1.69038,1.72928 0 0 1 -0.07851,2.17508l-0.36358,0.44256a0.13647,0.13961 0 0 1 0.0137,0.05391a1.65086,1.68885 0 0 1 2.13458,0.13422a1.70355,1.74276 0 0 1 0.06797,2.3659l-0.90368,1.09859a0.15228,0.15579 0 0 1 0.13647,0.03019a0.1507,0.15417 0 0 1 0.04373,0.07493a1.65192,1.68993 0 0 1 1.92697,0.5687a1.68933,1.7282 0 0 1 -0.10539,2.14166l-7.62147,9.2717a8.31543,8.50679 0 0 1 -8.93931,2.61225l0,0a5.48636,5.61261 0 0 1 -3.56361,-6.92305l0.49004,-1.71203z"/>
      <g stroke="null" id="svg_51" opacity="0.2">
       <path stroke="null" id="svg_52" fill="#0c0c0c" d="m351.60454,212.77837a0.15334,0.15686 0 0 0 0.21077,-0.01779l4.82981,-5.68539a0.15228,0.15579 0 0 0 -0.23027,-0.2043l-4.82981,5.68485a0.15228,0.15579 0 0 0 0.01528,0.21993l0.00422,0.0027z"/>
      </g>
      <g stroke="null" id="svg_53" opacity="0.2">
       <path stroke="null" id="svg_54" fill="#0c0c0c" d="m353.99679,215.02622a0.15228,0.15579 0 0 0 0.21077,-0.01779l5.38993,-6.34465a0.15228,0.15579 0 0 0 -0.01528,-0.21993a0.15808,0.16172 0 0 0 -0.21499,0.01563l-5.38625,6.34465a0.15228,0.15579 0 0 0 0.01528,0.21993l0.00053,0.00216z"/>
      </g>
      <g stroke="null" id="svg_55" opacity="0.2">
       <path stroke="null" id="svg_56" fill="#0c0c0c" d="m356.57399,217.47675a0.15228,0.15579 0 0 0 0.21077,-0.01779l4.29972,-5.06062a0.15281,0.15633 0 0 0 -0.23027,-0.20484l-4.29972,5.06116a0.15228,0.15579 0 0 0 0.01528,0.21993l0.00422,0.00216z"/>
      </g>
     </g>
     <path stroke="null" id="svg_57" fill="#F3B7AD" d="m361.26258,222.68184l-11.40797,52.94573c-0.02635,0.11859 -0.05269,0.24257 -0.08431,0.36117a68.56108,70.1388 0 0 1 -8.2991,7.55158c-0.59543,0.45334 -1.19085,0.90076 -1.80209,1.332a10.29878,10.53578 0 0 1 -1.13816,0.06469a11.59239,11.85915 0 0 1 -10.03269,-5.92419l-21.741,-38.48511l20.07591,-11.864l6.80263,12.04243l4.98473,-23.13074l22.64205,5.10644z"/>
     <path stroke="null" id="svg_58" fill="#F3B7AD" d="m326.15345,246.82061c-0.0685,0.84038 -0.2055,2.33949 -0.3952,4.31242c-0.94847,10.08567 -3.16683,32.56415 -4.19434,42.95169a67.79493,69.35502 0 0 1 -39.97267,0.41507l-0.00527,0a67.38129,68.93186 0 0 1 -25.97749,-15.00722c0.04215,-9.28787 -0.08958,-19.73471 -0.70081,-26.4513c-1.82844,-20.06946 -0.10012,-23.2116 2.74002,-26.11709c0.23185,-0.23718 0.47423,-0.46898 0.71662,-0.69538c2.93498,-2.72761 6.6182,-4.50648 11.98759,-5.25091c3.55149,-0.49 8.89452,-0.84577 8.89452,-0.84577s0.45316,9.36819 11.23935,9.88568c14.68545,0.7067 13.70537,-9.88568 13.77914,-9.88568c3.69376,0 11.91382,0.23718 17.09878,2.93784c0.00527,0 0.00527,0 0.01054,0.00539a10.2129,10.44791 0 0 1 2.80852,2.06457c5.93847,6.43629 3.00875,9.18869 1.97071,21.68069z"/>
     <path stroke="null" id="svg_59" fill="#fff" d="m303.1083,201.32351a10.69661,10.94276 0 0 1 -6.87113,0.99078a0.43313,0.4431 0 0 0 -0.45948,0.6501c0.69712,1.25437 2.34693,3.39926 5.17864,2.52546c1.82844,-0.56439 2.51976,-2.4888 2.77585,-3.67957a0.43261,0.44256 0 0 0 -0.62388,-0.48676z"/>
     <circle stroke="null" id="svg_60" fill="#0c0c0c" r="0.91379" cy="190.63464" cx="303.24109"/>
     <circle stroke="null" id="svg_61" fill="#0c0c0c" r="0.91379" cy="192.3968" cx="293.40126"/>
     <path stroke="null" id="svg_62" fill="#0c0c0c" d="m323.88924,269.43116a0.12804,0.13099 0 0 1 -0.02002,0a0.15808,0.16172 0 0 1 -0.13489,-0.1822l1.80999,-18.65606a0.15492,0.15848 0 0 1 0.17863,-0.138a0.15808,0.16172 0 0 1 0.13489,0.1822l-1.80999,18.65606a0.15808,0.16172 0 0 1 -0.1586,0.138z"/>
     <g stroke="null" id="svg_63">
      <path stroke="null" id="svg_64" fill="#E98862" d="m312.93338,268.53256l9.89305,-4.51995a1.71515,1.75462 0 0 1 2.31848,1.03229a1.77364,1.81445 0 0 1 -1.00116,2.20742l-2.12141,0.97029l8.0388,0.08463c0.89578,-0.00647 1.99494,0.57032 1.93593,1.59667a1.71409,1.75354 0 0 1 -1.31732,1.71742a0.10539,0.10781 0 0 1 0.00369,0.02587a0.1839,0.18813 0 0 1 -0.00369,0.01994l1.37844,-0.0097a1.71567,1.75515 0 0 1 1.69302,2.1023a1.75519,1.79558 0 0 1 -1.73254,1.40154l-0.58647,0.00431a0.15492,0.15848 0 0 1 -0.03162,0.0469a1.71462,1.75408 0 0 1 1.33576,1.81499a1.76995,1.81068 0 0 1 -1.78101,1.6495l-1.45695,0.01024a0.15808,0.16172 0 0 1 0.06797,0.13099a0.15808,0.16172 0 0 1 -0.02793,0.08517a1.71673,1.75623 0 0 1 0.86258,1.94059a1.75467,1.79504 0 0 1 -1.72358,1.36003l-12.29268,0.08948a8.63422,8.83291 0 0 1 -8.04196,-5.46168l0,0a5.69713,5.82823 0 0 1 2.94236,-7.54673l1.64823,-0.75252z"/>
      <g stroke="null" id="svg_65" opacity="0.2">
       <path stroke="null" id="svg_66" fill="#0c0c0c" d="m322.72263,271.57713a0.15808,0.16172 0 0 0 0.15808,0.16172l7.64465,0.07062a0.15808,0.16172 0 0 0 0.00263,-0.32343l-7.64571,-0.07062a0.15808,0.16172 0 0 0 -0.15808,0.16172l-0.00158,0z"/>
      </g>
      <g stroke="null" id="svg_67" opacity="0.2">
       <path stroke="null" id="svg_68" fill="#0c0c0c" d="m322.59933,275.02706a0.15808,0.16172 0 0 0 0.15808,0.16172l8.53095,0.0787a0.15808,0.16172 0 0 0 0.15808,-0.16172a0.16282,0.16657 0 0 0 -0.15808,-0.16172l-8.53147,-0.0787a0.15808,0.16172 0 0 0 -0.15808,0.16172l0.00053,0z"/>
      </g>
      <g stroke="null" id="svg_69" opacity="0.2">
       <path stroke="null" id="svg_70" fill="#0c0c0c" d="m322.44441,278.75892a0.15808,0.16172 0 0 0 0.15808,0.16172l6.80526,0.06307a0.15808,0.16172 0 0 0 0,-0.32343l-6.80526,-0.06253a0.15808,0.16172 0 0 0 -0.15808,0.16172l0,-0.00054z"/>
      </g>
     </g>
     <path stroke="null" id="svg_71" fill="#F3B7AD" d="m315.76772,286.55416l-34.17647,7.94563l-0.00527,0a67.38129,68.93186 0 0 1 -25.97749,-15.00722q-1.20139,-1.11584 -2.35009,-2.28612q-2.00232,-2.04463 -3.83076,-4.25258l4.7845,-39.37239a11.86218,12.13515 0 1 1 23.39555,4.02672l-3.02456,36.96821l38.10735,-8.82483l3.07725,20.80257z"/>
     <g stroke="null" id="b_4_st">
      <path stroke="null" id="svg_72" fill="#0c0c0c" d="m266.87471,276.02862a0.15808,0.16172 0 0 1 -0.02371,-0.32343l7.64044,-1.67106a0.15808,0.16172 0 0 1 0.18021,0.13584a0.15808,0.16172 0 0 1 -0.13331,0.18382l-7.64307,1.67106a0.11856,0.12129 0 0 1 -0.02055,0.00377z"/>
     </g>
     <g stroke="null" data-name="b_4_st" id="b_4_st-2">
      <path stroke="null" id="svg_73" fill="#0c0c0c" d="m315.76772,286.55416a0.16177,0.16549 0 0 1 -0.11592,0.19406l-33.20166,8.00493c-0.21077,-0.05983 -0.41627,-0.11859 -0.62177,-0.18382l33.59158,-8.09064l-2.99294,-20.48399l-37.88077,8.36016a0.16229,0.16603 0 0 1 -0.137,-0.04259a0.18653,0.19082 0 0 1 -0.04215,-0.14015l2.12352,-21.12546a0.15808,0.16172 0 0 1 0.18442,-0.12991a0.15808,0.16172 0 0 1 0.13173,0.18382l-2.0919,20.90984l37.78065,-8.37687a0.14227,0.14554 0 0 1 0.12119,0.02156a0.14912,0.15255 0 0 1 0.07377,0.09649l3.07725,20.80257z"/>
     </g>
    </g>
   </g>
   <g stroke="null" id="svg_74">
    <circle stroke="null" id="svg_75" fill="#fff" r="55.2481" cy="313.62483" cx="58.83557"/>
    <circle stroke="null" id="svg_76" opacity="0.09" fill="#F8B042" r="55.2481" cy="313.62483" cx="58.83557"/>
    <g stroke="null" id="svg_77">
     <g stroke="null" id="svg_78">
      <path stroke="null" id="svg_79" fill="#0a0a0a" d="m41.78896,277.70723s0.67078,19.07221 13.11415,19.94871l2.10771,-25.15003l-15.22186,5.20132z"/>
      <circle stroke="null" id="svg_80" fill="#0a0a0a" r="6.57949" cy="294.01033" cx="44.18542"/>
      <path stroke="null" fill="#E98862" d="m73.02887,306.50772c-0.06587,-0.00916 -0.79408,12.35778 -14.83773,11.27967c-9.72233,-0.74335 -13.18845,-11.29584 -13.41081,-11.29584a23.03197,23.56198 0 0 0 3.27907,-0.81343c1.53072,-0.84146 3.42502,-1.71688 3.91823,-4.75822c0.28454,-1.753 -0.1976,-10.72121 -0.04953,-12.4947l14.92362,3.40789c-0.21077,3.74534 -1.66825,12.42893 3.44716,13.96631c0.85046,0.25389 1.76731,0.48784 2.73001,0.70831z" data-name="sk" id="sk-3"/>
      <path stroke="null" opacity="0.5" fill="#0c0c0c" d="m67.06037,302.24921a10.802,11.05057 0 0 1 -0.44894,-2.37183a24.71603,25.28479 0 0 1 0.09748,-5.51073a16.36424,16.74081 0 0 1 -8.24799,-3.69682c-0.27716,1.04684 -1.80104,5.62178 -1.37897,6.61633c0.79777,1.88453 4.5458,4.96306 9.97841,4.96306z" data-name="sh" id="sh-3"/>
      <path stroke="null" id="svg_81" fill="#E98862" d="m64.72239,298.91732c-5.91054,0.07708 -13.29963,-2.97395 -14.21543,-11.09639l-0.82622,-7.33111c-0.91633,-8.12244 2.51133,-15.20128 9.98737,-16.08155l0,0c7.47551,-0.88189 13.80548,5.04284 14.72181,13.16582l0.36569,3.24456c0.35146,3.11842 0.5127,17.96176 -10.03321,18.09868z"/>
      <circle stroke="null" id="svg_82" fill="#0c0c0c" r="0.82725" cy="279.65267" cx="72.61312"/>
      <circle stroke="null" id="svg_83" fill="#0c0c0c" r="0.82725" cy="280.76096" cx="63.13951"/>
      <path stroke="null" id="svg_84" opacity="0.5" fill="#0c0c0c" d="m67.84075,287.97995l0.01475,0a8.37814,8.57093 0 0 0 0.90052,-0.16495c0.44367,-0.11051 1.02856,-0.30456 0.98272,-0.71101c-0.05269,-0.46251 -1.85426,-5.31021 -2.05976,-5.86112a0.18969,0.19406 0 1 0 -0.35462,0.13854c0.76879,2.06403 2.00232,5.45575 2.0371,5.76786a3.40026,3.47851 0 0 1 -1.54969,0.44526a0.18969,0.19406 0 0 0 0.02898,0.38704l0,-0.00162z"/>
      <path stroke="null" id="svg_85" opacity="0.5" fill="#0c0c0c" d="m66.50446,291.36035a7.76743,7.94617 0 0 0 3.44768,-1.056a0.19022,0.1946 0 0 0 -0.1839,-0.34014c-2.27316,1.28672 -4.44726,1.36111 -6.28624,0.21562a1.28096,1.31044 0 0 0 -0.11487,-0.06684a0.19022,0.1946 0 0 0 -0.15439,0.35524c0.01423,0.00755 0.03847,0.02264 0.07166,0.04366a5.69081,5.82177 0 0 0 3.22005,0.84847z"/>
      <path stroke="null" id="svg_86" fill="#0a0a0a" d="m43.60264,282.5738l6.69882,-0.7509c5.15282,-1.70233 7.29372,-10.45762 7.29372,-10.45762s4.61746,5.37166 18.3007,2.91897c0,0 -0.53009,-18.0464 -21.34054,-15.50584c-7.24577,0.88566 -12.70947,8.3192 -12.76586,18.03885c-0.03899,6.81093 1.81316,5.75654 1.81316,5.75654z"/>
      <path stroke="null" id="svg_87" fill="#E98862" d="m51.25046,290.24074c-2.27211,0.26953 -4.39404,-2.00096 -4.65593,-4.32536s1.43482,-3.82296 3.70693,-4.09087l1.3463,1.41879l1.55601,6.76672l-1.95332,0.23071z"/>
      <path stroke="null" id="svg_88" fill="#0c0c0c" d="m69.33511,277.28677a4.27865,4.37711 0 0 1 2.19307,-0.54552a3.76963,3.85638 0 0 1 1.11129,0.19783a4.46149,4.56416 0 0 1 1.01223,0.49215a0.14543,0.14878 0 0 1 -0.1449,0.25767l-0.00948,-0.00539a4.14323,4.23857 0 0 0 -0.95374,-0.42423a3.41712,3.49575 0 0 0 -1.02013,-0.14608a3.89241,3.98198 0 0 0 -1.95332,0.54929l-0.01423,0.00916a0.21815,0.22317 0 1 1 -0.22658,-0.38111l0.0058,-0.00377z"/>
      <path stroke="null" id="svg_89" fill="#0c0c0c" d="m63.33131,278.41662a3.87924,3.9685 0 0 0 -2.02393,-0.08894a3.42502,3.50384 0 0 0 -0.9627,0.37734a4.15851,4.2542 0 0 0 -0.83676,0.63123l-0.0079,0.00755a0.14543,0.14878 0 0 1 -0.1976,-0.21562a4.47519,4.57817 0 0 1 0.87891,-0.71101a3.78333,3.8704 0 0 1 1.04015,-0.44687a4.28128,4.3798 0 0 1 2.25683,0.03073a0.21815,0.22317 0 1 1 -0.12435,0.42747l-0.0058,0l-0.01686,-0.01186z"/>
      <path stroke="null" id="svg_90" fill="#0c0c0c" d="m66.63145,293.1969a3.90716,3.99707 0 0 0 0.65339,-0.08463a0.19022,0.1946 0 0 0 -0.07851,-0.38057a2.45759,2.51414 0 0 1 -2.00865,-0.29163a0.18969,0.19406 0 0 0 -0.24028,0.30079a2.57246,2.63165 0 0 0 1.67405,0.45604z"/>
      <ellipse stroke="null" id="svg_91" transform="matrix(0.526604 -0.0188597 0.0184354 0.538722 -0.487941 0.790649)" opacity="0.1" fill="#0c0c0c" ry="2.458" rx="3.351" cy="534.40096" cx="99.59377"/>
      <path stroke="null" id="svg_92" opacity="0.1" fill="#0c0c0c" d="m72.2859,286.1116c0.0274,0.73042 0.83729,1.29373 1.8121,1.26084a2.43967,2.49581 0 0 0 0.49953,-0.07169c0.1154,-0.85817 0.18601,-1.68723 0.22447,-2.457a2.22574,2.27696 0 0 0 -0.81621,-0.11967c-0.97271,0.03342 -1.74202,0.65279 -1.71989,1.38752z"/>
     </g>
     <path stroke="null" id="svg_93" fill="#ffc239" d="m94.00319,319.53338c-0.04215,4.31781 -1.4912,9.46576 -2.00759,15.68642c-0.137,1.66028 -3.62051,6.46324 -4.12636,11.80525c-0.63758,6.80284 0.78038,17.41139 0.97007,21.99873a61.95606,63.38178 0 0 1 -63.52103,-2.15621c-0.25292,-11.78369 -0.55327,-26.33271 -0.93793,-29.82038c-1.24882,-11.51416 -0.91158,-18.79676 0.89051,-22.20357c2.94552,-5.56302 8.18844,-7.26104 13.67375,-8.02649c3.35125,-0.46359 8.38341,-0.79241 8.38341,-0.79241s0.42681,8.82429 10.5965,9.31483c13.84237,0.66842 12.92025,-9.31483 12.98875,-9.31483c5.02161,0 14.53791,1.22904 18.18424,3.77337c3.86764,2.68987 4.95311,5.88106 4.90569,9.73529z"/>
    </g>
    <path stroke="null" id="svg_94" fill="#ffc239" d="m46.17931,326.24998l-18.77967,41.92534a62.00348,63.43029 0 0 1 -18.44244,-17.06101l15.66553,-34.97372l21.55658,10.10939z"/>
    <path stroke="null" id="svg_95" fill="#ffc239" d="m109.17341,350.48038a62.1036,63.53271 0 0 1 -13.1679,13.77818a60.47803,61.86974 0 0 1 -5.16915,3.57931l-19.27498,-43.35059l21.58292,-10.04794l16.02911,36.04104z"/>
   </g>
   <g stroke="null" id="svg_96">
    <g stroke="null" id="svg_97">
     <circle stroke="null" id="svg_98" fill="#fff" r="57.52199" cy="62.9687" cx="187.65969"/>
     <circle stroke="null" id="svg_99" opacity="0.09" fill="#F8B042" r="57.52199" cy="62.9687" cx="187.65969"/>
    </g>
    <g stroke="null" id="svg_100">
     <g stroke="null" id="svg_101">
      <path stroke="null" id="svg_102" fill="#0c0c0c" d="m200.12151,23.48797s4.08105,-4.52481 3.76542,-13.14318c-0.24397,-6.67293 -5.36359,-1.37243 -5.36359,-1.37243s-0.22184,-4.80296 -3.47772,-3.71946s-4.25704,6.35758 -4.25704,6.35758"/>
      <path stroke="null" id="svg_103" fill="#0c0c0c" d="m177.87571,8.99932s-16.25306,4.88651 -6.19613,26.75371l1.48435,-0.17142l3.01297,-0.34715"/>
      <path stroke="null" fill="#E98862" d="m200.90874,58.43581c-0.07377,-0.0097 -0.89578,13.93989 -16.73678,12.72164c-10.9664,-0.84038 -14.87672,-12.7432 -15.12807,-12.7432c1.18242,-0.25713 2.64359,-0.64686 3.22427,-0.78109a6.39795,6.54517 0 0 0 4.89462,-5.50426c0.3209,-1.97724 -0.22342,-12.0931 -0.05585,-14.09352l16.8332,3.84344c-0.23501,4.22563 -1.88113,14.02075 3.88872,15.75435c0.96059,0.28731 1.99494,0.55145 3.07989,0.80265z" data-name="sk" id="sk-4"/>
      <path stroke="null" fill="#0c0c0c" d="m194.17672,53.6307a12.22049,12.5017 0 0 1 -0.50638,-2.67262a27.87443,28.51587 0 0 1 0.11013,-6.21635a18.45509,18.87977 0 0 1 -9.30342,-4.17011c-0.31299,1.18106 -2.03183,6.34141 -1.55601,7.46372c0.89999,2.12171 5.12752,5.59536 11.25568,5.59536z" data-name="sh" id="sh-4"/>
      <path stroke="null" id="svg_104" fill="#E98862" d="m191.4288,49.18945c-6.63928,0.61075 -15.20974,-2.16483 -16.92805,-11.21876l-1.55075,-8.16934c-1.71831,-9.05608 1.53705,-17.31706 9.86987,-18.97195l0,0c8.33282,-1.65543 15.95429,4.44718 17.67313,13.50111l0.685,3.6165a27.1204,27.74449 0 0 1 0.39309,3.76959c0.14859,3.34212 0.362,8.42162 -1.20824,12.17665c-1.48172,3.54589 -4.69123,4.90645 -8.93404,5.29619z"/>
      <path stroke="null" id="svg_105" opacity="0.5" fill="#0c0c0c" d="m192.43259,40.23848a7.76269,7.94132 0 0 0 3.48457,-0.9207a0.19022,0.1946 0 1 0 -0.17125,-0.34715c-2.31848,1.19724 -4.49416,1.18592 -6.2894,-0.02911a1.28359,1.31313 0 0 0 -0.11224,-0.07115a0.18969,0.19406 0 0 0 -0.16756,0.34877c0.01423,0.00809 0.03741,0.02426 0.07008,0.04636a5.69081,5.82177 0 0 0 3.1858,0.97299z"/>
      <path stroke="null" id="svg_106" fill="#0c0c0c" d="m192.49108,42.08042a3.86975,3.9588 0 0 0 0.65602,-0.0593a0.18969,0.19406 0 1 0 -0.06376,-0.38273a2.46286,2.51953 0 0 1 -1.99653,-0.36979a0.18969,0.19406 0 0 0 -0.25082,0.29109a2.56982,2.62896 0 0 0 1.65508,0.52072z"/>
      <circle stroke="null" id="svg_107" fill="#0c0c0c" r="0.93309" cy="29.1588" cx="198.49858"/>
      <circle stroke="null" id="svg_108" fill="#0c0c0c" r="0.93309" cy="30.37436" cx="188.3331"/>
      <path stroke="null" id="svg_109" fill="#E98862" d="m175.54196,40.62606c-2.53241,0.50294 -5.11119,-1.86081 -5.60334,-4.45149s1.29044,-4.4267 3.82233,-4.92963l1.63347,1.47646l2.32375,7.47234l-2.17621,0.43232z"/>
      <g stroke="null" id="svg_110">
       <path stroke="null" id="svg_111" fill="#0c0c0c" d="m177.32876,35.9859s-1.4148,-12.99925 2.25103,-14.49674c2.44125,-0.99779 9.23913,1.54223 14.73656,-0.62261c2.40489,-0.94765 4.88145,-0.75467 5.33461,0.40483c0.17968,0.45873 0.52008,-6.67778 -4.30078,-11.15353c-3.83813,-3.56314 -14.20805,-2.84997 -18.59209,-0.63662c-12.13881,6.12849 -3.42028,22.42458 -3.42028,22.42458l1.3542,4.32104l2.63674,-0.24096z"/>
       <g stroke="null" id="svg_112">
        <path stroke="null" id="svg_113" fill="#0c0c0c" d="m193.99124,37.01926l0.01633,0c0.81674,-0.16172 2.16883,-0.52126 2.05501,-1.14603c-0.09748,-0.51803 -2.52925,-5.83524 -2.80536,-6.43952a0.21077,0.21562 0 1 0 -0.38308,0.18382c1.07809,2.35458 2.7063,5.98348 2.77269,6.33656c-0.05269,0.16172 -0.87048,0.47383 -1.71567,0.63932a0.21077,0.21562 0 0 0 0.0627,0.43124l-0.00263,-0.00539z"/>
       </g>
       <path stroke="null" id="svg_114" fill="#0c0c0c" d="m194.56876,23.99036a5.03215,5.14795 0 0 1 2.62726,-0.48515a4.44832,4.55068 0 0 1 1.28939,0.31373a5.20814,5.32799 0 0 1 1.14554,0.64686a0.30825,0.31535 0 0 1 -0.33196,0.53097l-0.02371,-0.00862a4.54791,4.65256 0 0 0 -1.02751,-0.49862a3.71062,3.79601 0 0 0 -1.1018,-0.1946a4.19328,4.28978 0 0 0 -2.1193,0.51911l-0.02687,0.01563a0.46317,0.47383 0 1 1 -0.45948,-0.82313l0.02845,-0.01617z"/>
       <path stroke="null" id="svg_115" fill="#0c0c0c" d="m188.57496,25.64741a4.19908,4.29571 0 0 0 -2.17884,-0.02318a3.70482,3.79008 0 0 0 -1.03172,0.44041a4.56635,4.67143 0 0 0 -0.89578,0.71963l-0.01686,0.01725a0.30825,0.31535 0 0 1 -0.43998,-0.44148a5.19128,5.31074 0 0 1 0.97534,-0.89321a4.45885,4.56146 0 0 1 1.18927,-0.59997a4.87565,4.98785 0 0 1 1.30889,-0.24581a4.82612,4.93718 0 0 1 1.35789,0.12075a0.46317,0.47383 0 0 1 -0.21077,0.92286l-0.0274,-0.00755l-0.03003,-0.0097z"/>
      </g>
      <ellipse stroke="null" id="svg_116" transform="matrix(0.488348 -0.202465 0.19791 0.499585 -27.2948 10.1749)" fill="#0c0c0c" ry="9.865" rx="6.702" cy="155.23806" cx="381.69598"/>
     </g>
     <path stroke="null" id="svg_117" fill="#383838" d="m222.80255,72.85061c0.06323,4.46874 -1.64401,9.49271 -2.21309,16.29555c-0.11592,1.37997 -0.38993,4.42023 -0.75351,8.38226c-0.59543,6.56027 -1.43851,15.63252 -2.17621,23.80994a64.53431,66.01936 0 0 1 -67.35179,-4.62507q-0.34777,-0.26683 -0.69554,-0.51749c-0.6165,-9.24475 -1.34366,-18.94769 -2.00759,-25.07672c-1.24882,-11.44408 -2.95079,-17.14187 -1.99705,-20.9907a6.10076,6.24115 0 0 1 0.30562,-0.95951c2.74529,-6.81362 11.487,-9.85388 17.40966,-10.67324c3.61472,-0.50132 9.0526,-0.86248 9.0526,-0.86248s0.45843,9.53045 11.43431,10.05872c14.94364,0.72233 13.94775,-10.05872 14.02152,-10.05872c2.41859,0 15.59703,1.80043 18.89033,3.99977a15.04271,15.38887 0 0 1 1.58078,1.20748a12.52084,12.80896 0 0 1 4.49996,10.0102z"/>
     <path stroke="null" id="svg_118" fill="#383838" d="m167.78085,79.76126l-17.47289,36.95204q-0.34777,-0.26683 -0.69554,-0.51749a64.86943,66.3622 0 0 1 -16.91435,-18.78059l12.90971,-27.28683l0.51112,-1.0835l21.66196,10.71636z"/>
     <path stroke="null" id="svg_119" fill="#fff" d="m166.09468,84.01439l-15.89211,32.61806c-0.10539,-0.08086 -0.2055,-0.15633 -0.31089,-0.2264l15.87104,-32.55876a0.19075,0.19514 0 0 1 0.25292,-0.08625a0.1839,0.18813 0 0 1 0.07904,0.25335z"/>
     <path stroke="null" id="svg_120" fill="#383838" d="m246.67233,89.51272a64.65392,66.14173 0 0 1 -13.12575,19.75088l-13.71064,-11.73517l-17.41493,-14.91019l15.88157,-19.77783l0.04742,-0.0593l28.32232,26.73161z"/>
     <path stroke="null" id="svg_121" fill="#fff" d="m220.04725,97.67236a0.18548,0.18975 0 0 0 0.17547,-0.17304l0.90473,-10.85112a0.18548,0.18975 0 0 0 -0.16862,-0.20538a0.18759,0.1919 0 0 0 -0.20023,0.1725l-0.90473,10.85166a0.18548,0.18975 0 0 0 0.16862,0.20484l0.02477,0.00054z"/>
    </g>
   </g>
   <g stroke="null" id="svg_122">
    <circle stroke="null" id="svg_123" fill="#fff" r="54.86387" cy="351.51482" cx="491.12791"/>
    <path stroke="null" id="svg_124" opacity="0.09" fill="#F8B042" d="m429.65768,351.51321a61.46865,62.88316 0 1 0 61.46865,-62.88262a61.24365,62.65298 0 0 0 -61.46865,62.88262z"/>
    <g stroke="null" id="svg_125">
     <g stroke="null" id="svg_126">
      <path stroke="null" id="svg_127" fill="#0a0a0a" d="m519.02026,316.81332c-0.98166,11.64353 -0.07166,15.59155 4.65434,22.26286c3.9862,5.62447 -18.69431,0.84362 -28.7291,-0.98485l8.85501,-26.47718s15.56436,1.11045 15.21975,5.19916z"/>
      <path stroke="null" id="svg_128" fill="#0a0a0a" d="m484.39853,311.96886c-2.9608,11.28722 -2.62831,14.7792 -8.4224,20.70662c-4.80188,4.91292 13.9135,5.91179 23.95567,7.69659l0.50796,-27.97682s-15.00108,-4.39004 -16.04123,-0.42639z"/>
      <path stroke="null" fill="#E98862" d="m485.39653,344.79823c0.06587,-0.00916 0.80146,12.47367 14.97631,11.38533c9.81296,-0.75198 13.31175,-11.40311 13.53675,-11.40311a23.28595,23.8218 0 0 1 -3.30963,-0.82098c-1.54495,-0.84955 -3.45717,-1.73359 -3.95511,-4.80296c-0.28718,-1.76971 0.19971,-10.82148 0.05006,-12.61383l-15.06326,3.43969c0.21077,3.78091 1.68617,12.54591 -3.47772,14.09676c-0.86047,0.25875 -1.78628,0.49485 -2.75741,0.7191z" data-name="sk" id="sk-5"/>
      <path stroke="null" opacity="0.5" fill="#0c0c0c" d="m491.42036,340.49929a10.89105,11.14167 0 0 0 0.45316,-2.39178a24.91468,25.48801 0 0 0 -0.09801,-5.56248a16.51599,16.89606 0 0 0 8.32544,-3.73132c0.2798,1.05708 1.8179,5.67407 1.39214,6.67832c-0.80567,1.89854 -4.58848,5.00726 -10.07273,5.00726z" data-name="sh" id="sh-5"/>
      <path stroke="null" id="svg_129" fill="#E98862" d="m493.36841,336.61056c5.93899,0.58757 13.62264,-1.84248 15.21449,-9.93312l1.4364,-7.30039c1.59185,-8.09064 -1.272,-15.50476 -8.718,-17.03783l0,0c-7.44653,-1.53307 -14.3029,3.88118 -15.89475,11.9702l-0.63547,3.23431c-0.61071,3.10225 -1.99863,18.0189 8.59734,19.06682z"/>
      <path stroke="null" id="svg_130" fill="#0a0a0a" d="m517.20658,321.68151l-6.69882,-0.7509c-13.10783,-2.46563 -16.31787,-13.28602 -16.31787,-13.28602s-5.49848,7.50954 -10.16705,5.78511c0,0 1.5049,-18.10731 22.22999,-14.92528c8.14313,1.25006 12.76691,8.15586 12.76691,17.41894c0,6.80985 -1.81316,5.75816 -1.81316,5.75816z"/>
      <ellipse stroke="null" id="svg_131" transform="matrix(0.0624268 -0.535256 0.523216 0.0638633 -665.59 828.811)" opacity="0.1" fill="#0c0c0c" ry="3.382" rx="2.481" cy="2080.57785" cx="1190.09599"/>
      <path stroke="null" id="svg_132" opacity="0.1" fill="#0c0c0c" d="m486.81923,323.07657c-0.08747,0.73203 -0.94847,1.22958 -1.92644,1.11153a2.47656,2.53355 0 0 1 -0.49637,-0.11536c-0.04532,-0.87326 -0.04795,-1.71311 -0.02318,-2.49096a2.25156,2.30337 0 0 1 0.83044,-0.04959c0.97481,0.11805 1.69776,0.80912 1.61556,1.54439z"/>
      <path stroke="null" id="svg_133" opacity="0.5" fill="#0c0c0c" d="m491.13529,325.34006l-0.01475,0a8.28909,8.47983 0 0 1 -0.89209,-0.24365c-0.43735,-0.14986 -1.00959,-0.39513 -0.93003,-0.79995c0.09063,-0.46089 2.30372,-5.18083 2.5556,-5.71719a0.1918,0.19622 0 1 1 0.34566,0.1698c-0.94425,2.00959 -2.46444,5.31452 -2.52556,5.62501a3.4324,3.51139 0 0 0 1.52176,0.58164a0.1918,0.19622 0 0 1 -0.0606,0.38704l0,-0.0027z"/>
      <path stroke="null" id="svg_134" fill="#E98862" d="m507.63548,329.04712c2.26315,0.46574 4.58426,-1.63279 5.04006,-3.94802s-1.12762,-3.96958 -3.39077,-4.43532l-1.47118,1.31098l-2.12352,6.67185l1.94541,0.40052z"/>
      <path stroke="null" id="svg_135" fill="#0c0c0c" d="m490.24953,314.8129a3.82654,3.9146 0 0 0 -0.90579,-0.48515a3.78702,3.87417 0 0 0 -1.01381,-0.23341a3.47034,3.5502 0 0 0 -1.03805,0.05876a4.18064,4.27684 0 0 0 -0.99378,0.34445l-0.01001,0.00431a0.14649,0.14986 0 0 1 -0.12488,-0.26953a4.53157,4.63585 0 0 1 1.0586,-0.40806a3.80072,3.88818 0 0 1 1.13447,-0.10242a4.3208,4.42023 0 0 1 2.1604,0.73796a0.22026,0.22532 0 0 1 -0.24766,0.37249l-0.00527,-0.00377l-0.01423,-0.01563z"/>
      <path stroke="null" id="svg_136" fill="#0c0c0c" d="m496.34765,315.67539a4.31448,4.41376 0 0 1 2.27158,0.16441a3.8023,3.8898 0 0 1 1.00959,0.53905a4.50786,4.61159 0 0 1 0.82569,0.79079a0.14649,0.14986 0 0 1 -0.21657,0.20214l-0.0079,-0.00809a4.18275,4.279 0 0 0 -0.79039,-0.70724a3.46454,3.54427 0 0 0 -0.9374,-0.46089a3.93193,4.02241 0 0 0 -2.0429,-0.08517l-0.01633,0.00431a0.22026,0.22532 0 1 1 -0.10539,-0.43771l0.01001,-0.00162z"/>
     </g>
     <path stroke="null" id="svg_137" fill="#ea394a" d="m462.5669,407.2081c-2.41649,-1.0781 -4.22437,-2.23168 -8.35074,-5.41209a61.11508,62.52145 0 0 1 -8.26695,-7.64754l21.18773,-41.24505l0.92107,-1.79181l19.11058,10.27811l-16.57712,32.27307l-0.0764,0.14231l0.14385,0.57409"/>
     <path stroke="null" id="svg_138" fill="#ea394a" d="m533.03072,374.02888c-0.55643,6.11609 -0.67657,15.62821 -0.63811,24.0854a61.43229,62.84596 0 0 1 -60.05648,13.2871c-1.25672,-12.75398 -3.12573,-31.49629 -4.17906,-43.03686c-1.06755,-11.95403 -4.20698,-15.90205 4.36137,-21.62678c4.72126,-2.45862 12.20573,-2.67478 15.56963,-2.67478c-1.14185,11.33088 22.20048,12.72541 22.78063,0c17.45867,1.66998 25.5412,2.08505 22.16202,29.96592z"/>
     <path stroke="null" id="svg_139" fill="#fff" d="m489.14403,326.93457a9.73497,9.95899 0 0 0 6.25673,0.90183a0.39467,0.40375 0 0 1 0.41838,0.59296c-0.63231,1.14225 -2.13722,3.09524 -4.71547,2.2996c-1.66509,-0.51426 -2.29424,-2.26402 -2.52925,-3.35021a0.39414,0.40321 0 0 1 0.56961,-0.44418z"/>
     <circle stroke="null" id="svg_140" fill="#0c0c0c" r="0.83199" cy="317.20198" cx="489.02337"/>
     <circle stroke="null" id="svg_141" fill="#0c0c0c" r="0.83199" cy="318.8062" cx="497.98323"/>
     <path stroke="null" id="svg_142" fill="#0c0c0c" d="m470.22104,388.95093l0.01792,0a0.14438,0.1477 0 0 0 0.12277,-0.16657l-1.64823,-16.98716a0.14069,0.14393 0 0 0 -0.16229,-0.1256a0.14332,0.14662 0 0 0 -0.12277,0.16603l1.6477,16.9877a0.14438,0.1477 0 0 0 0.1449,0.1256z"/>
     <g stroke="null" id="svg_143">
      <rect stroke="null" id="svg_144" fill="#fff" height="21.10875" width="16.82425" y="376.01368" x="451.24219"/>
      <path stroke="null" id="svg_145" fill="#fff" d="m461.17687,386.56832a6.8901,7.04865 0 1 1 6.88957,7.05027a6.89747,7.0562 0 0 1 -6.88957,-7.05027zm2.82169,0a4.06788,4.16148 0 1 0 4.06788,-4.16148a4.07262,4.16634 0 0 0 -4.06788,4.16148z"/>
     </g>
     <g stroke="null" id="ha">
      <path stroke="null" id="svg_146" fill="#E98862" d="m467.9326,389.18057a1.50543,1.54007 0 0 1 1.46328,-1.29373a0.13858,0.14177 0 0 1 -0.02055,-0.04798l-0.50111,-0.11104a1.54442,1.57996 0 0 1 -1.2446,-1.54061a1.50859,1.54331 0 0 1 1.82686,-1.48617l1.1819,0.2609c0,-0.00431 0,-0.00862 0,-0.01348a0.15808,0.16172 0 0 1 0.01054,-0.02803a1.50543,1.54007 0 0 1 -0.83149,-1.71796c0.1291,-0.89429 1.17821,-1.18861 1.94647,-1.01881l3.06144,0.56061l-1.0333,-0.70077a1.5655,1.60152 0 0 1 -0.45368,-2.13573a1.50754,1.54223 0 0 1 2.15039,-0.41561l12.3401,14.4466l-2.74002,-1.27162a7.59143,7.76613 0 0 1 -7.88177,3.22461l-6.69197,-1.4921a1.54442,1.57996 0 0 1 -1.24513,-1.54061a1.50806,1.54277 0 0 1 1.07967,-1.45544a0.137,0.14015 0 0 1 -0.01001,-0.07331a0.13911,0.14231 0 0 1 0.08115,-0.10781l-1.23512,-0.27276a1.56445,1.60045 0 0 1 -1.25303,-1.76917z"/>
      <path stroke="null" opacity="0.2" fill="#0c0c0c" d="m472.87359,385.47081a0.14174,0.14501 0 0 0 -0.00527,-0.28462l-2.06713,-0.35793a0.14174,0.14501 0 1 0 -0.04742,0.2857l2.06713,0.35793a0.13595,0.13908 0 0 0 0.05269,-0.00108z" data-name="sh" id="sh-6"/>
      <path stroke="null" opacity="0.2" fill="#0c0c0c" d="m472.37459,388.46201a0.14174,0.14501 0 0 0 -0.00422,-0.28462l-2.8317,-0.51372a0.14174,0.14501 0 1 0 -0.04953,0.28516l2.8317,0.51426a0.14174,0.14501 0 0 0 0.05375,-0.00108z" data-name="sh" id="sh-7"/>
      <path stroke="null" opacity="0.2" fill="#0c0c0c" d="m471.85451,391.70495a0.14174,0.14501 0 0 0 -0.0079,-0.28516l-1.34314,-0.21023a0.14174,0.14501 0 0 0 -0.04268,0.28624l1.34314,0.21077a0.13542,0.13854 0 0 0 0.05058,-0.00162z" data-name="sh" id="sh-8"/>
     </g>
     <path stroke="null" id="svg_147" fill="#ea394a" d="m541.60223,387.39469a61.64253,63.06104 0 0 1 -31.02387,23.79108l-0.00474,-0.00485c-2.79271,-0.559 -29.43361,-11.3201 -32.95769,-12.0268l3.85605,-18.40271c9.90095,2.01552 27.95874,9.78542 37.91607,11.80848l-7.02499,-32.5841a10.802,11.05057 0 1 1 21.30312,-3.66556l7.93604,31.08446z"/>
     <g stroke="null" data-name="b_4_st" id="b_4_st-3">
      <path stroke="null" id="svg_148" fill="#0c0c0c" d="m526.93523,394.95867a0.14438,0.1477 0 0 0 0.0216,-0.29324l-7.48658,-2.59823a0.14227,0.14554 0 0 0 -0.16387,0.12398a0.14385,0.14716 0 0 0 0.12119,0.16711l7.48658,2.59823a0.09537,0.09757 0 0 0 0.02108,0.00216z"/>
     </g>
     <g stroke="null" data-name="b_4_st" id="b_4_st-4">
      <path stroke="null" id="svg_149" fill="#0c0c0c" d="m519.58512,392.19172a0.17125,0.17519 0 0 1 -0.03847,0.12776a0.14649,0.14986 0 0 1 -0.12488,0.03935l-37.71004,-11.3864l-3.77912,18.11216l32.47292,12.15455c-0.10064,0.0345 -0.20656,0.06846 -0.3072,0.10296c-0.07219,0.0248 -0.14385,0.04905 -0.22078,0.069l-32.15624,-12.07855a0.14701,0.1504 0 0 1 -0.10539,-0.17681l3.85605,-18.40271a0.13647,0.13961 0 0 1 0.06692,-0.0884a0.13173,0.13476 0 0 1 0.11065,-0.01941l37.61889,11.40096l-4.25862,-17.96338a0.1449,0.14824 0 0 1 0.12014,-0.16657a0.1428,0.14608 0 0 1 0.16809,0.11751l4.28708,18.15798z"/>
     </g>
    </g>
   </g>
   <path stroke="null" id="svg_150" fill="#0c0c0c" d="m27.84858,368.71814a0.26821,0.27438 0 0 1 -0.10222,-0.02102a0.26346,0.26953 0 0 1 -0.14069,-0.35308l10.3246,-25.10529a0.26346,0.26953 0 0 1 0.48583,0.20969l-10.3246,25.10421a0.26346,0.26953 0 0 1 -0.24291,0.16549z"/>
   <path stroke="null" id="svg_151" fill="#0c0c0c" d="m88.60219,369.0033l-0.01159,0a0.26346,0.26953 0 0 1 -0.27506,-0.25713l-1.15081,-25.67722a0.27295,0.27923 0 0 1 0.25082,-0.28192a0.26346,0.26953 0 0 1 0.27558,0.25713l1.15081,25.67722a0.26346,0.26953 0 0 1 -0.23975,0.28192z"/>
  </g>
 </g>
</svg>