<svg width="395.143" height="445.05800000000005" xmlns="http://www.w3.org/2000/svg">

 <g>
  <title>background</title>
  <rect fill="none" id="canvas_background" height="447.058" width="397.143" y="-1" x="-1"/>
 </g>
 <g>
  <title>Layer 1</title>
  <g stroke="null" id="svg_1">
   <ellipse stroke="null" id="svg_2" fill="#fff" ry="11.816088" rx="110.072146" cy="426.241513" cx="278.73718"/>
   <ellipse stroke="null" id="svg_3" opacity="0.1" fill="#292a2e" ry="11.816088" rx="110.072146" cy="426.241513" cx="278.73718"/>
   <g stroke="null" id="svg_4">
    <rect stroke="null" id="svg_5" fill="#f4f4f4" height="11.876558" width="35.085933" y="250.52719" x="60.92668"/>
    <rect stroke="null" id="svg_6" opacity="0.05" fill="#292a2e" height="11.876558" width="4.597259" y="250.52719" x="65.638379"/>
    <rect stroke="null" id="svg_7" fill="#fff" height="7.037923" width="19.115863" y="253.108608" x="72.413494"/>
   </g>
   <g stroke="null" id="svg_8">
    <rect stroke="null" id="svg_9" fill="#f4f4f4" transform="matrix(0.40028026271280764,0.20338990913450056,-0.17482822983608345,0.465674029519281,-1.8512745930134606,-46.412173348213955) " height="23.372" width="81.445" y="422.974001" x="417.698995"/>
    <rect stroke="null" id="svg_10" opacity="0.05" fill="#292a2e" transform="matrix(0.40028026271280764,0.20338990913450056,-0.17482822983608345,0.465674029519281,-1.8512745930134606,-46.412173348213955) " height="23.372" width="81.445" y="422.974001" x="417.698995"/>
    <rect stroke="null" id="svg_11" fill="#fff" transform="matrix(0.40028026271280764,0.20338990913450056,-0.17482822983608345,0.465674029519281,-3.06470875495697,-47.936008623761204) " height="23.372" width="10.672" y="424.609999" x="481.281004"/>
    <rect stroke="null" id="svg_12" fill="#fff" transform="matrix(0.40028026271280764,0.20338990913450056,-0.17482822983608345,0.465674029519281,-1.430796913556856,-45.923902345182384) " height="13.85" width="44.373" y="427.559001" x="426.838995"/>
   </g>
   <g stroke="null" id="svg_13">
    <g stroke="null" id="svg_14">
     <rect stroke="null" id="svg_15" opacity="0.05" fill="#292a2e" height="6.850414" width="8.817128" y="400.979181" x="115.242479"/>
     <rect stroke="null" id="svg_16" opacity="0.05" fill="#292a2e" height="6.850414" width="8.817128" y="400.979181" x="25.096449"/>
    </g>
    <rect stroke="null" id="svg_17" fill="#f4f4f4" height="137.786778" width="115.127602" y="262.960684" x="17.014446"/>
    <rect stroke="null" id="svg_18" opacity="0.03" fill="#292a2e" height="137.786778" width="115.127602" y="262.960684" x="17.014446"/>
    <rect stroke="null" id="svg_19" fill="#f4f4f4" height="137.786778" width="115.127602" y="262.960684" x="38.349223"/>
    <g stroke="null" id="svg_20">
     <rect stroke="null" id="svg_21" opacity="0.05" fill="#292a2e" height="6.850414" width="8.817128" y="400.979181" x="136.577256"/>
     <rect stroke="null" id="svg_22" opacity="0.05" fill="#292a2e" height="6.850414" width="8.817128" y="400.979181" x="46.431663"/>
    </g>
    <rect stroke="null" id="svg_23" opacity="0.7" fill="#fff" height="26.471737" width="106.484318" y="269.414231" x="42.671302"/>
    <rect stroke="null" id="svg_24" opacity="0.7" fill="#fff" height="26.471737" width="106.484318" y="302.364922" x="42.671302"/>
    <rect stroke="null" id="svg_25" opacity="0.7" fill="#fff" height="26.471737" width="106.484318" y="335.315614" x="42.671302"/>
    <circle stroke="null" id="svg_26" opacity="0.05" fill="#292a2e" r="3.164026" cy="282.650099" cx="95.913461"/>
    <circle stroke="null" id="svg_27" opacity="0.05" fill="#292a2e" r="3.164026" cy="315.600791" cx="95.913461"/>
    <circle stroke="null" id="svg_28" opacity="0.05" fill="#292a2e" r="3.164026" cy="348.55199" cx="95.913461"/>
    <g stroke="null" id="svg_29">
     <rect stroke="null" id="svg_30" opacity="0.7" fill="#fff" height="26.471737" width="106.484318" y="369.009225" x="42.671302"/>
     <circle stroke="null" id="svg_31" opacity="0.05" fill="#292a2e" r="3.164026" cy="382.245094" cx="95.913461"/>
    </g>
   </g>
   <g stroke="null" id="svg_32">
    <rect stroke="null" id="svg_33" fill="#f4f4f4" transform="matrix(-0.43679422920301114,0,0,-0.508153280916757,367.68289950815085,298.6366029025775) " height="202.861" width="155.853" y="339.337001" x="553.406"/>
    <rect stroke="null" id="svg_34" fill="#f4f4f4" height="103.084483" width="2.208432" y="23.116909" x="55.674666"/>
    <rect stroke="null" id="svg_35" opacity="0.05" fill="#292a2e" height="103.084483" width="2.208432" y="23.116909" x="55.674666"/>
    <rect stroke="null" id="svg_36" opacity="0.05" fill="#292a2e" transform="matrix(-0.43679422920301114,0,0,-0.508153280916757,367.68289950815085,298.6366029025775) " height="128.954" width="99.071" y="376.291001" x="581.796"/>
    <rect stroke="null" id="svg_37" opacity="0.03" fill="#292a2e" transform="matrix(-0.43679422920301114,0,0,-0.508153280916757,285.64596372713066,298.6366029025775) " height="128.954" width="5.163" y="376.291001" x="487.888011"/>
    <rect stroke="null" id="svg_38" fill="#f4f4f4" transform="matrix(-0.43679422920301114,0,0,-0.508153280916757,120.18218328206422,736.9360831679796) " height="128.633" width="127.462" y="1023.352" x="142.628998"/>
    <rect stroke="null" id="svg_39" opacity="0.05" fill="#292a2e" transform="matrix(-0.43679422920301114,0,0,-0.508153280916757,120.18218328206422,736.9360831679796) " height="81.768" width="81.024" y="1046.784" x="165.847998"/>
    <rect stroke="null" x="0" id="svg_40" fill="#f4f4f4" height="65.365281" width="2.208432" y="151.551635"/>
    <rect stroke="null" x="0" id="svg_41" opacity="0.05" fill="#292a2e" height="65.365281" width="2.208432" y="151.551635"/>
    <rect stroke="null" id="svg_42" opacity="0.03" fill="#292a2e" transform="matrix(-0.43679422920301114,0,0,-0.508153280916757,53.91089251808086,736.9360831679796) " height="81.768" width="5.163" y="1046.784" x="89.987002"/>
   </g>
   <g stroke="null" id="svg_43">
    <rect stroke="null" fill="#f4f4f4" height="165.271773" width="142.062955" y="22.871471" x="199.641607" id="c_3_c"/>
    <rect stroke="null" fill="#f4f4f4" height="165.271773" width="1.628369" y="22.871471" x="198.013238" id="c_3_c-2"/>
    <rect stroke="null" opacity="0.05" fill="#292a2e" height="165.271773" width="1.628369" y="22.871471" x="198.013238" id="c_3_c-3"/>
    <polygon stroke="null" opacity="0.05" fill="#292a2e" points="234.0570511026508,136.75727640277364 234.0570511026508,93.5164544597992 264.50337093852613,93.5164544597992 264.50337093852613,118.63854991875633 311.66450527348934,118.63854991875633 311.66450527348934,163.11975454557614 331.70897514053286,163.11975454557614 331.70897514053286,188.14326077437 311.66450527348934,188.14326077437 307.8032119666168,188.14326077437 206.47523532931154,188.14326077437 206.47523532931154,136.75727640277364 234.0570511026508,136.75727640277364 " id="c_3_c-4"/>
    <g stroke="null" id="c_3_wh">
     <rect stroke="null" opacity="0.34" fill="#fffffa" height="4.694828" width="22.171238" y="98.211293" x="238.423693" id="c_3_wh-2"/>
     <rect stroke="null" opacity="0.34" fill="#fffffa" height="4.694828" width="22.171238" y="107.940395" x="238.423693" id="c_3_wh-3"/>
     <rect stroke="null" opacity="0.34" fill="#fffffa" height="4.694828" width="22.171238" y="117.669498" x="238.423693" id="c_3_wh-4"/>
    </g>
    <g stroke="null" id="c_3_wh-5">
     <rect stroke="null" opacity="0.34" fill="#fffffa" height="4.694828" width="4.086647" y="141.314379" x="210.406838" id="c_3_wh-6"/>
     <rect stroke="null" opacity="0.34" fill="#fffffa" height="4.694828" width="4.086647" y="151.043481" x="210.406838" id="c_3_wh-7"/>
     <rect stroke="null" opacity="0.34" fill="#fffffa" height="4.694828" width="4.086647" y="160.772076" x="210.406838" id="c_3_wh-8"/>
     <rect stroke="null" opacity="0.34" fill="#fffffa" height="4.694828" width="4.086647" y="141.314379" x="217.966872" id="c_3_wh-9"/>
     <rect stroke="null" opacity="0.34" fill="#fffffa" height="4.694828" width="4.086647" y="151.043481" x="217.966872" id="c_3_wh-10"/>
     <rect stroke="null" opacity="0.34" fill="#fffffa" height="4.694828" width="4.086647" y="160.772076" x="217.966872" id="c_3_wh-11"/>
     <rect stroke="null" opacity="0.34" fill="#fffffa" height="4.694828" width="4.086647" y="141.314379" x="225.322487" id="c_3_wh-12"/>
     <rect stroke="null" opacity="0.34" fill="#fffffa" height="4.694828" width="4.086647" y="151.043481" x="225.322487" id="c_3_wh-13"/>
     <rect stroke="null" opacity="0.34" fill="#fffffa" height="4.694828" width="4.086647" y="160.772076" x="225.322487" id="c_3_wh-14"/>
    </g>
    <polygon stroke="null" id="svg_44" fill="#fff" points="199.6416034097947,104.57996815114893 228.22673973145174,104.57996815114893 228.22673973145174,22.87096467297306 230.59108878129337,22.87096467297306 230.59108878129337,104.57996815114893 307.8032119666168,104.57996815114893 307.8032119666168,22.87096467297306 310.1671698185637,22.87096467297306 310.1671698185637,104.57996815114893 341.7045916086099,104.57996815114893 341.7045916086099,107.33009783217494 310.1671698185637,107.33009783217494 310.1671698185637,188.14326077437 307.8032119666168,188.14326077437 307.8032119666168,107.33009783217494 230.59108878129337,107.33009783217494 230.59108878129337,188.14326077437 228.22673973145174,188.14326077437 228.22673973145174,107.33009783217494 199.6416034097947,107.33009783217494 199.6416034097947,104.57996815114893 "/>
    <rect stroke="null" fill="#f4f4f4" height="5.496186" width="153.381604" y="187.94354" x="193.982064" id="c_3_c-5"/>
    <rect stroke="null" opacity="0.1" fill="#292a2e" height="5.496186" width="153.381604" y="187.94354" x="193.982064" id="c_3_c-6"/>
    <rect stroke="null" opacity="0.1" fill="#292a2e" height="5.496186" width="2.214547" y="187.94354" x="191.767518" id="c_3_c-7"/>
    <rect stroke="null" opacity="0.1" fill="#292a2e" height="5.496186" width="2.214547" y="187.94354" x="191.767518" id="c_3_c-8"/>
   </g>
   <g stroke="null" id="svg_45">
    <g stroke="null" id="svg_46">
     <path stroke="null" id="svg_47" fill="#F8B042" d="m317.343675,216.256824c-21.748858,0 -39.380057,6.902754 -39.380057,15.417879l0,18.355005l78.760551,0l0,-18.355005c0,-8.515125 -17.631199,-15.417879 -39.380494,-15.417879z"/>
     <path stroke="null" id="svg_48" opacity="0.49" fill="#fff" d="m317.343675,216.256824c-21.748858,0 -39.380057,6.902754 -39.380057,15.417879l0,18.355005l78.760551,0l0,-18.355005c0,-8.515125 -17.631199,-15.417879 -39.380494,-15.417879z"/>
     <path stroke="null" id="svg_49" opacity="0.49" fill="#fff" d="m345.996502,231.676736l0,18.351956l-68.033759,0l0,-18.351956c0,-7.804726 14.807324,-14.2537 34.016661,-15.273055c19.211521,1.019355 34.017098,7.468329 34.017098,15.273055z"/>
     <polygon stroke="null" id="svg_50" fill="#292a2e" points="356.724175543859,428.3782954462222 358.04591416987023,428.3782954462222 356.724175543859,248.4015966464649 355.4137646481904,249.93926880450454 356.3480812896014,375.6578959140825 309.6927998497122,376.5802172060503 308.75147566340456,249.92602842651104 307.4411328021524,249.93926880450454 308.38283117775063,376.60614771256223 280.21877686824337,377.1630345719095 279.2731324964898,249.92602842651104 277.9627726266335,248.4148026338662 279.2844772354365,428.3782954462222 280.58349236634604,428.36557092711155 280.22973040929537,378.6880166014307 308.39371668438616,378.13109535149124 308.75147566340456,428.3782954462222 310.06185254186494,428.36557092711155 309.7041275800548,378.1051648449793 356.359409019944,377.1823620847208 356.724175543859,428.3782954462222 "/>
    </g>
    <g stroke="null" id="svg_51">
     <path stroke="null" id="svg_52" fill="#F8B042" d="m237.939288,401.432961s-2.342091,14.123104 -13.708787,14.910234s-8.901866,11.321655 -8.901866,11.321655l43.437002,0l0,-25.247088l-20.826349,-0.984801z"/>
     <path stroke="null" id="svg_53" fill="#F8B042" d="m262.721683,358.95338s3.257175,13.875633 -6.643203,20.419123s-3.691785,14.730347 -3.691785,14.730347l38.975586,-22.307929l-9.579334,-22.653981l-19.061263,9.81244z"/>
     <path stroke="null" id="svg_54" fill="#262626" d="m258.597908,368.124022l-29.368297,-128.912898c-2.227651,-14.241504 1.126056,-20.41455 6.293768,-26.411267c9.079205,-10.535542 46.700729,-32.95933 46.700729,-32.95933l45.133948,-0.143299c11.968162,0 23.732341,13.728777 23.732341,27.651161s-12.16603,25.729833 -24.133755,25.729833l-55.578571,6.453547l15.065907,118.036893l-27.846069,10.55536z"/>
     <polygon stroke="null" id="svg_55" fill="#0c0c0c" points="286.4435347775434,357.5676534380473 280.512294349508,311.09805355193384 250.4643500392849,332.4222153646406 258.59789854572955,368.1240176640058 286.4435347775434,357.5676534380473 "/>
     <path stroke="null" id="svg_56" fill="#0c0c0c" d="m293.254473,205.927593s-18.973031,4.918924 -37.763919,26.779678c-11.392904,13.254162 -10.458601,37.239505 -8.749425,83.371184l18.662907,-32.069554l20.469925,-42.950132l7.380512,-35.131177z"/>
     <path stroke="null" id="svg_57" fill="#262626" d="m358.947451,179.683l-30.651598,-0.168199l-0.011357,0.469534l-9.281441,0s-23.249683,24.887315 -41.966316,40.57045c-13.614876,11.407025 -21.920518,22.282521 -22.639045,34.135705c-1.751982,28.894104 -21.511679,152.123815 -21.511679,152.123815l29.737825,5.238552l26.097145,-147.268919s40.805317,-21.88667 50.244003,-29.501347c8.887889,-7.171567 15.165932,-9.944052 18.107305,-17.770628c5.07948,-13.517385 1.875158,-37.828963 1.875158,-37.828963z"/>
    </g>
    <path stroke="null" id="svg_58" fill="#292a2e" d="m324.559952,188.664609l-49.724655,0.766295l27.893243,19.380966l23.209498,-13.943218a2.835231,3.298423 0 0 0 -1.378086,-6.204043z"/>
    <path stroke="null" id="svg_59" opacity="0.2" fill="#fff" d="m324.559952,188.664609l-49.724655,0.766295l27.893243,19.380966l23.209498,-13.943218a2.835231,3.298423 0 0 0 -1.378086,-6.204043z"/>
    <path stroke="null" id="svg_60" fill="#F8B042" d="m275.120087,84.884465l-14.064774,53.01614l-28.171044,42.909479l16.456223,21.976613l33.514784,-43.517739a11.586841,13.479782 0 0 0 3.509642,-5.386425l0.521969,-1.470087l19.35872,-54.491309l-31.12552,-13.036672z"/>
    <g stroke="null" id="svg_61">
     <g stroke="null" id="svg_62">
      <path stroke="null" id="svg_63" fill="#0c0c0c" d="m296.786391,28.60903s-5.667405,-4.979902 -7.071262,-16.433677c-1.087618,-8.868799 5.944769,-3.12311 5.944769,-3.12311s-0.729446,-6.395109 3.275957,-5.760426s6.246157,7.35247 6.246157,7.35247"/>
      <path stroke="null" id="svg_64" fill="#0c0c0c" d="m319.635534,4.040327s19.871517,2.478264 12.687999,33.804897l-1.758097,0.137201l-3.569482,0.278468"/>
      <path stroke="null" fill="#E98862" d="m300.114763,70.561148c0.087359,-0.013212 1.057042,18.700041 19.743099,17.070393c12.938282,-1.127592 17.551266,-17.096817 17.847412,-17.096817c-1.394684,-0.345036 -3.118711,-0.868434 -3.803604,-1.047812a7.547804,8.780889 0 0 1 -5.77442,-7.384483c-0.378264,-2.65256 0.262077,-16.224318 0.065956,-18.908384l-19.857539,5.156739c0.277801,5.668958 2.219788,18.81031 -4.586339,21.136128c-1.133481,0.384164 -2.353884,0.739871 -3.634565,1.074236z" id="sk"/>
      <path stroke="null" fill="#0c0c0c" d="m308.057429,64.11624a14.388002,16.738569 0 0 0 0.597535,-3.586038a32.857846,38.225831 0 0 0 -0.131038,-8.34032a21.771572,25.328392 0 0 0 10.977076,-5.592227c0.369091,1.584422 2.397127,8.507502 1.834536,10.01062c-1.060536,2.845658 -6.04829,7.507965 -13.278108,7.507965z" id="sh"/>
      <path stroke="null" id="svg_65" fill="#E98862" d="m312.156306,60.412311c7.834778,-0.817619 17.212313,-6.57652 17.34772,-18.949544l0.121866,-11.164128c0.135406,-12.372516 -5.34112,-22.485275 -15.354628,-22.633655l0,0c-10.013508,-0.147873 -17.608049,9.771279 -17.743455,22.144304l-0.053726,4.942299a32.096514,37.340119 0 0 0 0.317986,5.072894c0.51367,4.446341 1.310383,11.206304 3.904067,15.779176c2.449105,4.31727 6.454508,5.330528 11.46017,4.808654z"/>
      <path stroke="null" id="svg_66" fill="#0c0c0c" d="m308.521305,49.102852a10.32931,12.016809 0 0 1 -4.704711,-1.045271a0.252904,0.294221 0 0 1 0.198305,-0.541183c3.180299,1.577816 6.067945,1.347114 8.350632,-0.667713a1.670301,1.943178 0 0 1 0.143269,-0.1184a0.252904,0.294221 0 0 1 0.251593,0.508153c-0.018345,0.013212 -0.048047,0.040144 -0.087359,0.076731a7.575759,8.813411 0 0 1 -4.151729,1.787683z"/>
      <path stroke="null" id="svg_67" fill="#0c0c0c" d="m308.595123,51.890072a5.133206,5.971817 0 0 1 -0.876209,-0.024391a0.252467,0.293713 0 1 1 0.053289,-0.584376c1.749798,0.215965 2.585385,-0.716496 2.620765,-0.75664a0.252467,0.293713 0 0 1 0.357734,0.415161a3.42534,3.984938 0 0 1 -2.15558,0.950247z"/>
      <circle stroke="null" id="svg_68" fill="#0c0c0c" r="1.22581" cy="35.695735" cx="299.834778"/>
      <circle stroke="null" id="svg_69" fill="#0c0c0c" r="1.22581" cy="34.816122" cx="311.885494"/>
      <path stroke="null" id="svg_70" fill="#E98862" d="m328.840972,45.225642c3.043145,0.045226 5.551218,-3.705962 5.590966,-7.246266s-2.407173,-5.529216 -5.450318,-5.573933l-1.593862,2.348684l-1.162309,10.432895l2.615524,0.03862z"/>
      <g stroke="null" id="svg_71">
       <path stroke="null" id="svg_72" fill="#0c0c0c" d="m325.813115,39.534325s-1.02734,-17.507405 -5.590966,-18.588755c-3.039214,-0.720053 -10.409243,4.29542 -17.2359,2.780615c-2.986362,-0.660599 -5.821593,0.197163 -6.109878,1.838499c-0.11444,0.649928 -1.974747,-8.689421 2.702009,-15.77511c3.723671,-5.640501 15.908919,-7.236103 21.452712,-5.386425c15.350696,5.123201 8.576891,28.770114 8.576891,28.770114l-0.684457,6.035845l-3.110412,0.325218z"/>
       <g stroke="null" id="svg_73">
        <path stroke="null" id="svg_74" fill="#0c0c0c" d="m306.681527,44.971565a0.142832,0.166166 0 0 1 -0.019219,0c-0.980603,-0.011179 -2.624697,-0.158036 -2.618145,-1.011225c0.006989,-0.707349 1.736694,-8.32101 1.934125,-9.186903a0.249846,0.290664 0 0 1 0.483094,0.148889c-0.768758,3.372105 -1.913159,8.563399 -1.917527,9.045128c0.094784,0.203261 1.10771,0.41262 2.12282,0.424816a0.249846,0.290664 0 0 1 0.014851,0.580311l0,-0.001016z"/>
       </g>
       <path stroke="null" id="svg_75" fill="#0c0c0c" d="m303.33612,27.914892a5.93516,6.904787 0 0 0 -3.149723,0a5.231048,6.085644 0 0 0 -1.432248,0.729708a6.134775,7.137013 0 0 0 -1.196816,1.136231a0.36385,0.423292 0 0 0 0.494451,0.619947l0.022277,-0.022359a5.335005,6.206584 0 0 1 1.091986,-0.909086a4.38323,5.099318 0 0 1 1.239185,-0.526447a4.952373,5.761442 0 0 1 2.56704,0.167182l0.034507,0.014228a0.546866,0.636208 0 0 0 0.364286,-1.199242l-0.034944,-0.010163z"/>
       <path stroke="null" id="svg_76" fill="#0c0c0c" d="m310.633642,28.634946a4.950189,5.758901 0 0 1 2.525107,-0.563542a4.370563,5.084582 0 0 1 1.288106,0.329283a5.363396,6.239614 0 0 1 1.185023,0.731741l0.023587,0.018294a0.36385,0.423292 0 0 0 0.419759,-0.69058a6.135212,7.137521 0 0 0 -1.316061,-0.940592a5.235416,6.090725 0 0 0 -1.503446,-0.501039a5.93385,6.903262 0 0 0 -3.121332,0.486303a0.546866,0.636208 0 0 0 0.436794,1.168753l0.030576,-0.016769l0.031886,-0.021851z"/>
      </g>
      <ellipse stroke="null" id="svg_77" fill="#0c0c0c" transform="matrix(0.08933017639286736,-0.49741285690211823,0.4275620636243023,0.1039240429108564,-111.46874325181042,551.6136401731916) " ry="9.539" rx="14.04" cy="717.248001" cx="1240.97102"/>
     </g>
     <path stroke="null" id="svg_78" fill="#F8B042" d="m276.895219,111.692091c0.588799,8.045083 4.761057,58.239448 5.32889,68.149453l76.68971,0c0.440725,-8.937908 2.418966,-48.020485 4.090141,-65.500958c1.595173,-16.678607 3.830685,-24.268384 1.993529,-29.45104c-3.24014,-9.141678 -13.553725,-13.223673 -20.537628,-14.323825c-4.264859,-0.671779 -10.679182,-1.153 -10.679182,-1.153s-0.542935,12.781579 -13.493011,13.492994c-17.629015,0.965491 -16.451418,-13.492994 -16.538777,-13.492994c-2.856197,0 -18.401267,2.416269 -22.288736,5.363558c-5.490067,4.162792 -7.112757,9.836323 -7.176966,15.048451c-0.073381,6.002815 1.945481,12.741435 2.612029,21.86736z"/>
     <path stroke="null" id="svg_79" fill="#0c0c0c" d="m280.783998,160.061169a0.218397,0.254077 0 0 1 -0.218397,-0.231718l-2.905555,-38.660302a0.218397,0.254077 0 0 1 0.198305,-0.275419a0.21534,0.25052 0 0 1 0.236742,0.23121l2.905555,38.660302a0.218397,0.254077 0 0 1 -0.198305,0.274911a0.151131,0.175821 0 0 1 -0.018345,0.001016z"/>
     <g stroke="null" id="b_4_ha">
      <path stroke="null" id="svg_80" fill="#E98862" d="m286.344825,182.517479l10.530235,-9.93897l-1.772074,0.582852a2.346459,2.729799 0 0 1 -2.817323,-1.772439a2.26041,2.629693 0 0 1 1.639289,-3.306553l22.121881,-6.259432l1.903549,8.197529a11.38111,13.240442 0 0 1 -4.113728,14.007245l-8.196881,7.196467a2.315009,2.693212 0 0 1 -2.926521,-0.065044a2.259973,2.629185 0 0 1 -0.562154,-3.04892a0.203983,0.237308 0 0 1 -0.0926,-0.067076a0.208788,0.242897 0 0 1 -0.039748,-0.225112l-1.509998,1.330345a2.345585,2.728783 0 0 1 -3.191655,-0.308449a2.2591,2.628169 0 0 1 -0.008299,-3.381252a0.200925,0.233751 0 0 1 -0.067703,-0.026932l-0.620248,0.546773a2.315009,2.693212 0 0 1 -2.926521,-0.065044a2.262594,2.632234 0 0 1 -0.25072,-3.637869a0.203546,0.236799 0 0 1 -0.02184,-0.047258l-4.385414,4.138908a2.131556,2.479788 0 1 1 -2.685848,-3.851802l-0.005678,0.002033z"/>
      <path stroke="null" opacity="0.2" fill="#0a0a0a" d="m293.683842,182.376213a0.20704,0.240865 0 0 0 0.063772,-0.042177l4.219432,-4.07793a0.212282,0.246962 0 1 0 -0.271686,-0.379591l-4.218995,4.077422a0.212282,0.246962 0 0 0 0.207477,0.422275z" id="b_4_ha_sh"/>
      <path stroke="null" opacity="0.2" fill="#0a0a0a" d="m297.402271,185.45613a0.207477,0.241373 0 0 0 0.062462,-0.04116l3.337545,-3.174942a0.212282,0.246962 0 0 0 -0.268628,-0.382639l-3.337545,3.174942a0.212282,0.246962 0 0 0 0.206167,0.4238z" id="b_4_ha_sh-2"/>
      <path stroke="null" opacity="0.2" fill="#0a0a0a" d="m302.287377,188.118345a0.221018,0.257126 0 0 0 0.06683,-0.045226l1.545815,-1.542245a0.211845,0.246454 0 1 0 -0.276054,-0.374509l-1.546252,1.542245a0.212282,0.246962 0 0 0 0.209661,0.419735z" id="b_4_ha_sh-3"/>
     </g>
     <path stroke="null" id="svg_81" fill="#F8B042" d="m379.413445,158.17338l-0.080807,-0.417194l-13.997945,-72.026662l-27.692754,7.282853l10.925534,56.221571l-43.765908,12.511242l5.38611,28.72997l58.323386,-12.941648c0.131038,-0.029981 0.325412,-0.075715 0.458197,-0.110777a13.835457,16.095755 0 0 0 10.444187,-19.249354z"/>
     <path stroke="null" id="svg_82" fill="#0c0c0c" d="m304.587536,161.799562a0.218397,0.254077 0 0 1 0.161614,-0.298794l43.571098,-12.449755l-7.084366,-36.402068a0.218397,0.254077 0 1 1 0.425438,-0.112302l7.131976,36.645474a0.218397,0.254077 0 0 1 -0.16074,0.304892l-43.574156,12.449755s0.291779,1.481775 0.374333,1.981798a0.212282,0.246962 0 0 1 -0.421943,0.056913c-0.100463,-0.548297 -0.423254,-2.175912 -0.423254,-2.175912z"/>
     <g stroke="null" id="svg_83">
      <path stroke="null" id="svg_84" fill="#292a2e" d="m306.295401,201.918263l-16.827498,-60.177036a4.526935,5.266501 0 0 0 -4.305481,-3.637869l-68.556165,0a4.527372,5.267009 0 0 0 -4.305481,6.896656l16.827934,60.177036a4.527809,5.267517 0 0 0 4.305481,3.637869l68.555728,0a4.527809,5.267517 0 0 0 4.305481,-6.896656z"/>
      <path stroke="null" id="svg_85" opacity="0.2" fill="#fff" d="m306.295401,201.918263l-16.827498,-60.177036a4.526935,5.266501 0 0 0 -4.305481,-3.637869l-68.556165,0a4.527372,5.267009 0 0 0 -4.305481,6.896656l16.827934,60.177036a4.527809,5.267517 0 0 0 4.305481,3.637869l68.555728,0a4.527809,5.267517 0 0 0 4.305481,-6.896656z"/>
      <circle stroke="null" id="svg_86" fill="#fff" r="7.145434" cy="173.459139" cx="257.323343"/>
     </g>
    </g>
   </g>
   <g stroke="null" id="svg_87">
    <rect stroke="null" id="svg_88" fill="#292a2e" rx="26.131" height="218.725433" width="158.894821" y="6.35903" x="42.155885"/>
    <g stroke="null" id="svg_89">
     <rect stroke="null" id="svg_90" fill="#fff" rx="26.131" height="218.725433" width="158.894821" y="0.508153" x="47.185133"/>
     <path stroke="null" id="svg_91" fill="#292a2e" d="m194.666084,219.74174l-136.067081,0a11.863768,13.801951 0 0 1 -11.850664,-13.787215l0,-192.167818a11.863768,13.801951 0 0 1 11.850664,-13.786707l136.067081,0a11.863768,13.801951 0 0 1 11.850227,13.786707l0,192.167818a11.863768,13.801951 0 0 1 -11.850227,13.787215zm-136.067081,-218.725433a10.989306,12.784628 0 0 0 -10.977076,12.7704l0,192.167818a10.989306,12.784628 0 0 0 10.977076,12.7704l136.067081,0a10.988869,12.78412 0 0 0 10.976639,-12.7704l0,-192.167818a10.988869,12.78412 0 0 0 -10.976639,-12.7704l-136.067081,0z"/>
    </g>
    <circle stroke="null" id="svg_92" fill="#292a2e" r="28.161996" cy="213.763316" cx="45.352345"/>
    <g stroke="null" id="svg_93">
     <path stroke="null" id="svg_94" fill="#fff" d="m39.4696,209.460782a1.406914,1.636762 0 0 1 -1.406914,-1.636254l0,-7.922618c0,-4.380789 3.270278,-7.945485 7.289659,-7.945485s7.289659,3.564695 7.289659,7.945485l0,7.378894a1.406914,1.636762 0 1 1 -2.813392,0l0,-7.378894c0,-2.576337 -2.009253,-4.672469 -4.476267,-4.672469s-4.476267,2.096132 -4.476267,4.672469l0,7.923634a1.406477,1.636254 0 0 1 -1.406477,1.635237z"/>
     <rect stroke="null" id="svg_95" fill="#fff" rx="4.339" height="24.078335" width="21.739249" y="206.455056" x="34.48272"/>
     <path stroke="null" id="svg_96" fill="#292a2e" d="m43.56542,216.54698a1.788236,2.08038 0 0 0 1.004627,1.87102l0,3.194252a0.780114,0.907562 0 0 0 1.560229,0l0,-3.194252a1.786925,2.078855 0 1 0 -2.56704,-1.87102l0.002184,0z"/>
    </g>
    <g stroke="null" id="svg_97">
     <g stroke="null" id="svg_98">
      <rect stroke="null" id="svg_99" fill="#fff" rx="11.113" height="29.610092" width="122.011042" y="109.645758" x="65.627023"/>
      <path stroke="null" id="svg_100" fill="#292a2e" d="m182.783534,139.763495l-112.302417,0a5.297004,6.162375 0 0 1 -5.290888,-6.155261l0,-18.315369a5.29744,6.162883 0 0 1 5.290888,-6.155769l112.302417,0a5.29744,6.162883 0 0 1 5.291325,6.155769l0,18.315369a5.297004,6.162375 0 0 1 -5.291325,6.155261zm-112.302417,-29.610092a4.422105,5.144544 0 0 0 -4.4173,5.139462l0,18.315369a4.422105,5.144544 0 0 0 4.4173,5.138954l112.302417,0a4.422542,5.145052 0 0 0 4.417737,-5.138954l0,-18.315369a4.422542,5.145052 0 0 0 -4.417737,-5.139462l-112.302417,0z"/>
     </g>
     <g stroke="null" id="svg_101">
      <rect stroke="null" id="svg_102" fill="#fff" rx="11.113" height="29.610092" width="122.011042" y="151.961714" x="65.627023"/>
      <path stroke="null" id="svg_103" fill="#292a2e" d="m182.783534,182.079451l-112.302417,0a5.297004,6.162375 0 0 1 -5.290888,-6.156785l0,-18.313844a5.297004,6.162375 0 0 1 5.290888,-6.155261l112.302417,0a5.297004,6.162375 0 0 1 5.291325,6.155261l0,18.313844a5.297004,6.162375 0 0 1 -5.291325,6.156785zm-112.302417,-29.609584a4.422105,5.144544 0 0 0 -4.4173,5.138954l0,18.313844a4.422105,5.144544 0 0 0 4.4173,5.138954l112.302417,0a4.422105,5.144544 0 0 0 4.417737,-5.138954l0,-18.313844a4.422105,5.144544 0 0 0 -4.417737,-5.138954l-112.302417,0z"/>
     </g>
     <g stroke="null" id="svg_104">
      <circle stroke="null" id="svg_105" fill="#fff" r="25.912149" cy="57.287168" cx="126.632325"/>
      <path stroke="null" id="svg_106" fill="#292a2e" d="m126.632325,88.129024a26.510789,30.841855 0 1 1 26.510789,-30.841855a26.540491,30.87641 0 0 1 -26.510789,30.841855zm0,-60.667404a25.6372,29.825549 0 1 0 25.6372,29.825549a25.666029,29.859087 0 0 0 -25.6372,-29.825549z"/>
     </g>
     <g stroke="null" id="svg_107">
      <path stroke="null" id="svg_108" opacity="0.5" fill="#F8B042" d="m152.127131,57.287168a25.401332,29.551146 0 0 1 -6.040864,19.167034a25.626281,29.812845 0 0 0 -38.907883,0.00813a25.496116,29.661415 0 1 1 44.948747,-19.175164z"/>
      <path stroke="null" id="svg_109" fill="#fff" d="m146.086267,76.454202a25.496116,29.661415 0 0 1 -38.907883,0.00813a25.626281,29.812845 0 0 1 38.907883,-0.00813z"/>
      <circle stroke="null" id="svg_110" fill="#fff" r="10.241314" cy="48.528638" cx="126.632762"/>
     </g>
     <g stroke="null" id="svg_111" opacity="0.4">
      <circle stroke="null" id="svg_112" fill="#292a2e" r="3.08025" cy="166.76676" cx="75.080123"/>
      <circle stroke="null" id="svg_113" fill="#292a2e" r="3.08025" cy="166.76676" cx="84.775645"/>
      <circle stroke="null" id="svg_114" fill="#292a2e" r="3.08025" cy="166.76676" cx="94.471166"/>
      <circle stroke="null" id="svg_115" fill="#292a2e" r="3.08025" cy="166.76676" cx="104.166688"/>
      <circle stroke="null" id="svg_116" fill="#292a2e" r="3.08025" cy="166.76676" cx="113.861772"/>
      <circle stroke="null" id="svg_117" fill="#292a2e" r="3.08025" cy="166.76676" cx="123.557294"/>
      <circle stroke="null" id="svg_118" fill="#292a2e" r="3.08025" cy="166.76676" cx="133.252816"/>
     </g>
     <g stroke="null" id="svg_119" opacity="0.3">
      <path stroke="null" id="svg_120" d="m78.154281,124.233314l0,1.219568l-3.980506,0l0,-1.219568l3.980506,0z"/>
      <path stroke="null" id="svg_121" d="m83.100976,124.233314l0,1.219568l-3.980506,0l0,-1.219568l3.980506,0z"/>
      <path stroke="null" id="svg_122" d="m88.047234,124.233314l0,1.219568l-3.980506,0l0,-1.219568l3.980506,0z"/>
      <path stroke="null" id="svg_123" d="m92.993491,124.233314l0,1.219568l-3.980506,0l0,-1.219568l3.980506,0z"/>
      <path stroke="null" id="svg_124" d="m97.940623,124.233314l0,1.219568l-3.980943,0l0,-1.219568l3.980943,0z"/>
      <path stroke="null" id="svg_125" d="m106.867386,131.114218a5.871388,6.830596 0 0 1 -2.866681,0.751559c-2.643042,0 -4.883359,-2.250103 -4.883359,-5.849861c0,-3.861965 2.304963,-7.199516 5.882308,-7.199516c2.804219,0 4.68986,2.28669 4.68986,5.418438c0,2.812628 -1.354062,4.462094 -2.868864,4.462094c-0.644271,0 -1.240496,-0.508153 -1.192448,-1.649466l-0.064646,0a2.533407,2.947289 0 0 1 -2.27133,1.649466c-0.93474,0 -1.740625,-0.881138 -1.740625,-2.361896a3.806225,4.428048 0 0 1 3.819766,-4.4438a4.247824,4.941791 0 0 1 1.724464,0.393819l-0.548177,3.393448c-0.241547,1.422829 -0.048047,2.083428 0.483531,2.100198c0.822047,0.018294 1.740625,-1.256663 1.740625,-3.431051c0,-2.71862 -1.402109,-4.668404 -3.900136,-4.668404c-2.62688,0 -4.834875,2.418301 -4.834875,6.22437c0,3.131241 1.756786,5.062223 4.14212,5.062223a5.029686,5.851385 0 0 0 2.433381,-0.656026l0.255088,0.804407zm-1.141343,-8.903862a2.781506,3.23592 0 0 0 -0.805885,-0.131104c-1.418271,0 -2.562235,1.555965 -2.562235,3.374646c0,0.824733 0.354677,1.422829 1.063594,1.422829c0.93474,0 1.788672,-1.387258 1.965574,-2.549913l0.338952,-2.116458z"/>
      <path stroke="null" id="svg_126" d="m114.762005,124.233314l0,1.219568l-3.980506,0l0,-1.219568l3.980506,0z"/>
      <path stroke="null" id="svg_127" d="m119.7087,124.233314l0,1.219568l-3.980943,0l0,-1.219568l3.980943,0z"/>
      <path stroke="null" id="svg_128" d="m124.654958,124.233314l0,1.219568l-3.980506,0l0,-1.219568l3.980506,0z"/>
     </g>
    </g>
   </g>
  </g>
 </g>
</svg>