<svg width="357.95" height="475.194" xmlns="http://www.w3.org/2000/svg">

 <g>
  <title>background</title>
  <rect fill="none" id="canvas_background" height="477.194" width="359.95" y="-1" x="-1"/>
 </g>
 <g>
  <title>Layer 1</title>
  <g stroke="null" id="svg_1">
   <rect stroke="null" id="svg_2" fill="#292a2e" transform="matrix(0.5364716033402733,-0.019053690366201366,0.017121731313064728,0.5970052697010529,-0.18264799765884907,-0.23163475282756552) " height="737.821" width="582.261" y="32.951" x="18.453"/>
   <rect stroke="null" id="svg_3" opacity="0.58" fill="#fff" transform="matrix(0.5364716033402733,-0.019053690366201366,0.017121731313064728,0.5970052697010529,-0.18264799765884907,-0.23163475282756552) " height="737.821" width="582.261" y="32.951" x="18.453"/>
   <g stroke="null" id="svg_4">
    <g stroke="null" id="svg_5">
     <rect stroke="null" id="svg_6" fill="#fff" transform="matrix(0.534927590190406,-0.04910886704028835,0.04412944738749152,0.5952870352572927,-1.2777703986088897,-1.4718142283296396) " height="736.821" width="581.261" y="50.86" x="-1.266001"/>
     <path stroke="null" id="svg_7" d="m310.976494,0.644497l32.473058,438.024789l-310.399493,28.495235l-32.470911,-438.024789l310.399493,-28.495235m0.488974,-0.644497l-311.467615,28.593791l32.558937,439.215227l311.467615,-28.593791l-32.558937,-439.215227z"/>
    </g>
    <rect stroke="null" id="svg_8" fill="#292a2e" transform="matrix(0.534927590190406,-0.04910886704028835,0.04412944738749152,0.5952870352572927,-1.503141252864878,-0.15700957649289507) " height="19.184" width="265.304" y="96.973001" x="271.768"/>
    <g stroke="null" id="svg_9">
     <line stroke="null" id="svg_10" fill="#fff" y2="62.538278" x2="292.394927" y1="75.566787" x1="150.475856"/>
     <rect stroke="null" id="svg_11" transform="matrix(0.5351345233853002,-0.048979358158979414,0.04401307012797856,0.5955173181036887,-4.342265089455445,20.43813046494876) " height="1" width="265.304" y="115.106" x="279.9"/>
    </g>
    <g stroke="null" id="svg_12">
     <line stroke="null" id="svg_13" fill="#fff" y2="83.502638" x2="293.948803" y1="96.531147" x1="152.030269"/>
     <rect stroke="null" id="svg_14" transform="matrix(0.5351345233853002,-0.048979358158979414,0.04401307012797856,0.5955173181036887,-5.881649054419379,20.650175247222396) " height="1" width="265.304" y="150.204" x="282.796"/>
    </g>
    <g stroke="null" id="svg_15">
     <line stroke="null" id="svg_16" fill="#fff" y2="104.466998" x2="295.502679" y1="117.496104" x1="153.584145"/>
     <rect stroke="null" id="svg_17" transform="matrix(0.5351345233853002,-0.048979358158979414,0.04401307012797856,0.5955173181036887,-7.4210330193833105,20.862817338741863) " height="1" width="265.304" y="185.302" x="285.691"/>
    </g>
    <g stroke="null" id="svg_18">
     <line stroke="null" id="svg_19" fill="#fff" y2="125.431955" x2="297.057092" y1="138.460464" x1="155.138558"/>
     <rect stroke="null" id="svg_20" transform="matrix(0.5351345233853002,-0.048979358158979414,0.04401307012797856,0.5955173181036887,-8.960416984347244,21.0748621210155) " height="1" width="265.304" y="220.4" x="288.586"/>
    </g>
    <g stroke="null" id="svg_21">
     <line stroke="null" id="svg_22" fill="#fff" y2="153.573583" x2="220.430337" y1="159.424824" x1="156.692434"/>
     <rect stroke="null" id="svg_23" transform="matrix(0.5351345233853002,-0.048979358158979414,0.04401307012797856,0.5955173181036887,-10.895918580462984,17.732916890533915) " height="1" width="119.152" y="261.507" x="291.729"/>
    </g>
    <rect stroke="null" id="svg_24" fill="#292a2e" transform="matrix(0.534927590190406,-0.04910886704028835,0.04412944738749152,0.5952870352572927,-1.2411628751971715,-1.2267439500961919) " height="19.184" width="494.217" y="347.838001" x="42.222"/>
    <g stroke="null" id="svg_25">
     <g stroke="null" id="svg_26">
      <g stroke="null" id="svg_27">
       <line stroke="null" id="svg_28" fill="#fff" y2="346.775648" x2="172.781895" y1="356.678438" x1="64.912838"/>
       <rect stroke="null" id="svg_29" transform="matrix(0.5351345233853002,-0.048979358158979414,0.04401307012797856,0.5955173181036887,-25.515772289559077,12.028613592750332) " height="1" width="201.652" y="588.353" x="120.596"/>
      </g>
      <g stroke="null" id="svg_30">
       <line stroke="null" id="svg_31" fill="#fff" y2="371.448103" x2="174.611121" y1="381.350893" x1="66.741527"/>
       <rect stroke="null" id="svg_32" transform="matrix(0.5351345233853002,-0.048979358158979414,0.04401307012797856,0.5955173181036887,-27.327285846655762,12.278886166757802) " height="1" width="201.652" y="629.658" x="124.004"/>
      </g>
      <g stroke="null" id="svg_33">
       <line stroke="null" id="svg_34" fill="#fff" y2="396.120559" x2="176.43981" y1="406.023349" x1="68.570753"/>
       <rect stroke="null" id="svg_35" transform="matrix(0.5351345233853002,-0.048979358158979414,0.04401307012797856,0.5955173181036887,-29.138799403752433,12.528561431519428) " height="1" width="201.652" y="670.964" x="127.411"/>
      </g>
      <g stroke="null" id="svg_36">
       <line stroke="null" id="svg_37" fill="#fff" y2="420.793015" x2="178.269036" y1="430.695805" x1="70.399442"/>
       <rect stroke="null" id="svg_38" transform="matrix(0.5351345233853002,-0.048979358158979414,0.04401307012797856,0.5955173181036887,-30.950849705606775,12.778834005526896) " height="1" width="201.652" y="712.27" x="130.819"/>
      </g>
     </g>
     <circle stroke="null" id="svg_39" fill="#292a2e" r="5.631718" cy="356.051263" cx="53.678233"/>
     <circle stroke="null" id="svg_40" fill="#292a2e" r="5.631745" cy="431.716009" cx="59.287216"/>
     <circle stroke="null" id="svg_41" fill="#292a2e" r="5.631718" cy="407.043553" cx="57.458526"/>
     <circle stroke="null" id="svg_42" fill="#292a2e" r="5.631718" cy="381.547408" cx="55.568111"/>
    </g>
    <g stroke="null" id="svg_43">
     <g stroke="null" id="svg_44">
      <g stroke="null" id="svg_45">
       <line stroke="null" id="svg_46" fill="#fff" y2="333.947834" x2="312.514268" y1="343.850624" x1="204.64521"/>
       <rect stroke="null" id="svg_47" transform="matrix(0.5351345233853002,-0.048979358158979414,0.04401307012797856,0.5955173181036887,-24.09983961885655,24.735770488776286) " height="1" width="201.652" y="566.876" x="380.929"/>
      </g>
      <g stroke="null" id="svg_48">
       <line stroke="null" id="svg_49" fill="#fff" y2="358.62029" x2="314.343494" y1="368.52308" x1="206.4739"/>
       <rect stroke="null" id="svg_50" transform="matrix(0.5351345233853002,-0.048979358158979414,0.04401307012797856,0.5955173181036887,-25.911353175953227,24.986043062783757) " height="1" width="201.652" y="608.182" x="384.337"/>
      </g>
      <g stroke="null" id="svg_51">
       <line stroke="null" id="svg_52" fill="#fff" y2="383.292746" x2="316.172183" y1="393.195536" x1="208.303126"/>
       <rect stroke="null" id="svg_53" transform="matrix(0.5351345233853002,-0.048979358158979414,0.04401307012797856,0.5955173181036887,-27.72340347780757,25.235718327545385) " height="1" width="201.652" y="649.488" x="387.744"/>
      </g>
      <g stroke="null" id="svg_54">
       <line stroke="null" id="svg_55" fill="#fff" y2="407.965201" x2="318.001409" y1="417.867991" x1="210.131815"/>
       <rect stroke="null" id="svg_56" transform="matrix(0.5351345233853002,-0.048979358158979414,0.04401307012797856,0.5955173181036887,-29.534917034904247,25.48599090155285) " height="1" width="201.652" y="690.794" x="391.152"/>
      </g>
     </g>
     <circle stroke="null" id="svg_57" fill="#292a2e" r="5.631749" cy="343.222852" cx="193.410606"/>
     <circle stroke="null" id="svg_58" fill="#292a2e" r="5.631732" cy="418.887598" cx="199.019589"/>
     <circle stroke="null" id="svg_59" fill="#292a2e" r="5.631749" cy="394.21574" cx="197.190899"/>
     <circle stroke="null" id="svg_60" fill="#292a2e" r="5.631749" cy="368.719595" cx="195.301021"/>
    </g>
    <circle stroke="null" id="svg_61" fill="#F8B042" r="18.537576" cy="92.158844" cx="83.425164"/>
    <path stroke="null" id="svg_62" fill="#F8B042" d="m130.220719,143.461137a54.811838,60.996623 0 0 1 -85.402532,7.840281a53.696482,59.755414 0 0 1 85.400922,-7.840281l0.00161,0z"/>
    <path stroke="null" id="svg_63" d="m84.77132,49.051633a54.282608,60.407676 0 0 1 4.401307,120.611072c-1.502885,0.137978 -3.024557,0.207864 -4.524222,0.207864a54.282608,60.407676 0 0 1 -4.401307,-120.611072c1.502885,-0.137978 3.023483,-0.207864 4.524758,-0.207864l0,0m0,-0.597309c-1.5104,0 -3.035828,0.069288 -4.567698,0.209656l0,0a54.817742,61.003193 0 0 0 -50.129277,65.81213l0,0a54.820963,61.006777 0 0 0 54.569766,55.991769q2.266136,0 4.568235,-0.210253l0,0a54.817742,61.003193 0 0 0 50.126056,-65.81213l0,0a54.820426,61.00618 0 0 0 -54.570303,-55.991171l0.00322,0z"/>
    <g stroke="null" id="svg_64">
     <g stroke="null" id="svg_65">
      <line stroke="null" id="svg_66" fill="#fff" y2="213.76563" x2="303.605378" y1="238.035499" x1="39.234432"/>
      <rect stroke="null" id="svg_67" transform="matrix(0.5351345233853002,-0.048979358158979414,0.04401307012797856,0.5955173181036887,-16.067454320500463,16.402111890799695) " height="1" width="494.218" y="377.697" x="72.261"/>
     </g>
     <g stroke="null" id="svg_68">
      <line stroke="null" id="svg_69" fill="#fff" y2="234.72999" x2="305.159254" y1="258.999859" x1="40.788844"/>
      <rect stroke="null" id="svg_70" transform="matrix(0.5349337465300793,-0.04902574988190007,0.04405475793751737,0.5952938862578006,-1.286123412682201,-1.5535957817047912) " height="0.999" width="494.217" y="440.639" x="42.322"/>
     </g>
     <g stroke="null" id="svg_71">
      <line stroke="null" id="svg_72" fill="#fff" y2="255.69435" x2="306.71313" y1="279.964219" x1="42.34272"/>
      <rect stroke="null" id="svg_73" transform="matrix(0.5349337465300793,-0.04902574988190007,0.04405475793751737,0.5952938862578006,-1.307006363097388,-1.693631347512263) " height="0.999" width="494.217" y="476.094001" x="42.346998"/>
     </g>
     <g stroke="null" id="svg_74">
      <line stroke="null" id="svg_75" fill="#fff" y2="276.65871" x2="308.267543" y1="300.929177" x1="43.897133"/>
      <rect stroke="null" id="svg_76" transform="matrix(0.5349337465300793,-0.04902574988190007,0.04405475793751737,0.5952938862578006,-1.3278892225763377,-1.833666730145332) " height="0.999" width="494.218" y="511.548" x="42.371"/>
     </g>
     <g stroke="null" id="svg_77">
      <line stroke="null" id="svg_78" fill="#fff" y2="316.042295" x2="109.188913" y1="321.893536" x1="45.451009"/>
      <rect stroke="null" id="svg_79" transform="matrix(0.5351345233853002,-0.048979358158979414,0.04401307012797856,0.5955173181036887,-23.24158475136097,8.1293788358989) " height="1" width="119.152" y="533.508" x="84.477"/>
     </g>
    </g>
   </g>
   <path stroke="null" id="svg_80" fill="#F8B042" d="m35.556656,6.110474a7.94919,8.84615 0 0 1 6.751176,9.647142l-2.807175,33.747972a6.02496,6.704796 0 0 1 -6.52789,6.086581a5.904192,6.570402 0 0 1 -5.22682,-7.125899l2.88715,-34.698889a3.960103,4.406948 0 0 1 3.861879,-4.050354a3.888716,4.327505 0 0 1 3.883885,4.718743l-2.026211,24.357076a0.998345,1.110995 0 0 1 -1.085835,1.00348l0,0a0.997809,1.110398 0 0 1 -0.901194,-1.210149l2.01816,-24.26091a1.9457,2.165246 0 0 0 -1.511473,-2.350412a1.890952,2.10432 0 0 0 -2.241446,1.869578l-2.88715,34.700083a3.975132,4.423672 0 0 0 3.140494,4.789226a3.903745,4.34423 0 0 0 4.616005,-3.862202l2.825424,-33.960614a5.957867,6.630133 0 0 0 -5.351345,-7.235804a5.834416,6.492752 0 0 0 -6.241268,5.869161l-2.424476,29.134953a0.997272,1.109801 0 0 1 -1.085298,1.002882l0,0a0.997272,1.109801 0 0 1 -0.901731,-1.207759l2.423939,-29.134953a7.83218,8.715937 0 0 1 8.811202,-7.828932z"/>
  </g>
 </g>
</svg>